<?xml version="1.0" encoding="UTF-8"?>
<!DOCTYPE svg PUBLIC "-//W3C//DTD SVG 1.1//EN" "http://www.w3.org/Graphics/SVG/1.1/DTD/svg11.dtd">
<svg xmlns="http://www.w3.org/2000/svg" version="1.1" width="500px" height="500px" style="shape-rendering:geometricPrecision; text-rendering:geometricPrecision; image-rendering:optimizeQuality; fill-rule:evenodd; clip-rule:evenodd" xmlns:xlink="http://www.w3.org/1999/xlink">
<g><path style="opacity:0.983" fill="#135032" d="M 373.5,92.5 C 373.167,92.5 372.833,92.5 372.5,92.5C 371.85,92.1961 371.183,91.8627 370.5,91.5C 367.167,95.8333 363.833,100.167 360.5,104.5C 364.202,108.203 368.202,111.537 372.5,114.5C 373.11,115.391 373.443,116.391 373.5,117.5C 373.5,124.5 373.5,131.5 373.5,138.5C 366.725,132.898 360.058,127.065 353.5,121C 339.707,110.435 324.707,101.935 308.5,95.5C 307.833,95.5 307.5,95.1667 307.5,94.5C 307.5,88.8333 307.5,83.1667 307.5,77.5C 307.833,77.5 308.167,77.5 308.5,77.5C 309.496,77.5858 310.329,77.2524 311,76.5C 312.496,72.0109 313.996,67.5109 315.5,63C 315.167,62.5 314.833,62 314.5,61.5C 304.751,57.896 294.751,55.2294 284.5,53.5C 282.667,53.5854 281.334,54.2521 280.5,55.5C 276.481,55.3542 272.481,55.0209 268.5,54.5C 268.5,53.5 268.5,52.5 268.5,51.5C 256.855,50.4454 245.189,50.2787 233.5,51C 232.663,52.0113 232.33,53.1779 232.5,54.5C 228.418,54.8918 224.418,55.5584 220.5,56.5C 220.029,55.0992 219.362,53.7658 218.5,52.5C 206.905,54.7322 195.571,57.8988 184.5,62C 185.252,62.6708 185.586,63.5041 185.5,64.5C 185.5,64.8333 185.5,65.1667 185.5,65.5C 181.721,66.5578 178.054,67.8911 174.5,69.5C 174.167,69.5 173.833,69.5 173.5,69.5C 173.092,68.3569 172.425,67.3569 171.5,66.5C 161.267,71.1979 151.434,76.5312 142,82.5C 141.421,83.9285 141.588,85.2618 142.5,86.5C 139.167,88.8333 135.833,91.1667 132.5,93.5C 132.167,93.5 131.833,93.5 131.5,93.5C 131.189,92.5222 130.522,91.8555 129.5,91.5C 120.087,98.4088 111.42,106.242 103.5,115C 104.823,115.816 105.489,116.983 105.5,118.5C 102.785,121.214 100.451,124.214 98.5,127.5C 98.1667,127.5 97.8333,127.5 97.5,127.5C 95.4749,124.899 93.6416,125.232 92,128.5C 85.9076,136.766 80.4076,145.432 75.5,154.5C 76.0047,155.919 77.0047,156.585 78.5,156.5C 78.5,156.833 78.5,157.167 78.5,157.5C 76.0305,160.774 74.3638,164.441 73.5,168.5C 73.1667,168.5 72.8333,168.5 72.5,168.5C 69.586,167.095 67.7527,168.095 67,171.5C 62.7185,181.177 59.5518,191.177 57.5,201.5C 58.791,201.263 59.791,201.596 60.5,202.5C 60.0889,206.221 59.4222,209.888 58.5,213.5C 58.5,214.167 58.1667,214.5 57.5,214.5C 56.5,214.5 55.5,214.5 54.5,214.5C 50.5,237.833 50.5,261.167 54.5,284.5C 55.8333,284.5 57.1667,284.5 58.5,284.5C 59.2952,288.476 59.9619,292.476 60.5,296.5C 59.6016,297.158 58.6016,297.824 57.5,298.5C 60.3701,309.444 64.0367,320.11 68.5,330.5C 69.6998,331.292 71.0331,331.292 72.5,330.5C 72.8333,330.5 73.1667,330.5 73.5,330.5C 74.1322,334.431 75.7989,337.765 78.5,340.5C 78.5,340.833 78.5,341.167 78.5,341.5C 77.1882,342.145 76.1882,343.145 75.5,344.5C 81.0089,354.857 87.5089,364.523 95,373.5C 95.7083,372.619 96.5416,371.953 97.5,371.5C 97.8333,371.5 98.1667,371.5 98.5,371.5C 98.8331,396.176 98.4998,420.842 97.5,445.5C 29.5063,389.44 -1.99368,317.106 3,228.5C 12.8702,141.864 55.0369,76.3635 129.5,32C 210.115,-9.83254 290.781,-9.9992 371.5,31.5C 372.192,32.0253 372.692,32.6919 373,33.5C 373.5,53.1638 373.667,72.8305 373.5,92.5 Z M 232.5,54.5 C 232.54,59.1925 232.873,63.8592 233.5,68.5C 244.833,68.5 256.167,68.5 267.5,68.5C 267.437,63.7971 267.771,59.1304 268.5,54.5C 272.481,55.0209 276.481,55.3542 280.5,55.5C 280.5,55.8333 280.5,56.1667 280.5,56.5C 279.372,61.0618 278.705,65.7285 278.5,70.5C 288.362,72.0488 298.028,74.3821 307.5,77.5C 307.5,83.1667 307.5,88.8333 307.5,94.5C 258.667,77.9166 211.667,82.0832 166.5,107C 164.253,108.277 162.253,109.777 160.5,111.5C 160.167,111.5 159.833,111.5 159.5,111.5C 150.833,111.5 142.167,111.5 133.5,111.5C 135.994,109.401 138.327,107.068 140.5,104.5C 137.809,100.815 135.142,97.1484 132.5,93.5C 135.833,91.1667 139.167,88.8333 142.5,86.5C 144.728,90.612 147.228,94.612 150,98.5C 159.345,92.6591 169.012,87.3258 179,82.5C 177.63,78.2276 176.13,73.8942 174.5,69.5C 178.054,67.8911 181.721,66.5578 185.5,65.5C 186.581,70.0783 188.247,74.4117 190.5,78.5C 200.858,74.5771 211.525,71.9104 222.5,70.5C 221.833,65.8333 221.167,61.1667 220.5,56.5C 224.418,55.5584 228.418,54.8918 232.5,54.5 Z"/></g>
<g><path style="opacity:0.99" fill="#28513d" d="M 268.5,54.5 C 256.556,53.2777 244.556,53.2777 232.5,54.5C 232.33,53.1779 232.663,52.0113 233.5,51C 245.189,50.2787 256.855,50.4454 268.5,51.5C 268.5,52.5 268.5,53.5 268.5,54.5 Z"/></g>
<g><path style="opacity:0.987" fill="#135032" d="M 499.5,227.5 C 499.5,242.833 499.5,258.167 499.5,273.5C 488.349,357.671 446.682,421.838 374.5,466C 293.41,508.743 212.077,509.243 130.5,467.5C 129.5,447.511 129.167,427.511 129.5,407.5C 133.507,403.346 137.173,398.846 140.5,394C 136.957,390.951 133.291,388.118 129.5,385.5C 129.5,384.833 129.5,384.167 129.5,383.5C 129.5,376.167 129.5,368.833 129.5,361.5C 147.973,380.576 169.64,394.909 194.5,404.5C 194.5,410.167 194.5,415.833 194.5,421.5C 192.833,421.5 191.167,421.5 189.5,421.5C 188.134,426.573 186.468,431.573 184.5,436.5C 184.833,436.833 185.167,437.167 185.5,437.5C 195.702,441.242 206.202,443.908 217,445.5C 218.434,445.138 219.601,444.472 220.5,443.5C 224.519,443.646 228.519,443.979 232.5,444.5C 232.5,445.5 232.5,446.5 232.5,447.5C 244.493,448.811 256.493,448.811 268.5,447.5C 268.5,446.5 268.5,445.5 268.5,444.5C 272.481,443.979 276.481,443.646 280.5,443.5C 280.833,443.5 281.167,443.5 281.5,443.5C 281.97,444.693 282.97,445.36 284.5,445.5C 294.344,443.698 304.011,441.198 313.5,438C 314.973,437.29 315.64,436.124 315.5,434.5C 319.054,432.891 322.721,431.558 326.5,430.5C 327.458,430.953 328.292,431.619 329,432.5C 339.737,427.551 349.904,421.718 359.5,415C 358.944,414.617 358.611,414.117 358.5,413.5C 358.5,413.167 358.5,412.833 358.5,412.5C 362.078,410.925 365.411,408.925 368.5,406.5C 369.496,406.414 370.329,406.748 371,407.5C 380.334,400.332 388.834,392.332 396.5,383.5C 396.376,382.893 396.043,382.56 395.5,382.5C 395.5,382.167 395.5,381.833 395.5,381.5C 398.209,378.792 400.542,375.792 402.5,372.5C 403.167,372.5 403.833,372.5 404.5,372.5C 404.56,373.043 404.893,373.376 405.5,373.5C 413.033,364.272 419.699,354.439 425.5,344C 424.956,343.283 424.289,342.783 423.5,342.5C 423.5,342.167 423.5,341.833 423.5,341.5C 425.674,338.485 427.341,335.151 428.5,331.5C 428.833,331.5 429.167,331.5 429.5,331.5C 430.496,331.586 431.329,331.252 432,330.5C 436.595,320.548 440.095,310.214 442.5,299.5C 442.457,298.584 442.124,297.917 441.5,297.5C 441.5,297.167 441.5,296.833 441.5,296.5C 442.167,292.833 442.833,289.167 443.5,285.5C 443.5,284.833 443.833,284.5 444.5,284.5C 445.748,283.666 446.415,282.333 446.5,280.5C 449.166,258.158 449.166,235.824 446.5,213.5C 445.5,213.5 444.5,213.5 443.5,213.5C 442.705,209.524 442.038,205.524 441.5,201.5C 442.448,197.11 441.948,192.777 440,188.5C 437.667,182.5 435.333,176.5 433,170.5C 432.578,168.574 431.411,167.574 429.5,167.5C 429.167,167.5 428.833,167.5 428.5,167.5C 427.341,163.849 425.674,160.515 423.5,157.5C 423.5,156.833 423.5,156.167 423.5,155.5C 424.376,155.631 425.043,155.298 425.5,154.5C 419.922,144.76 413.756,135.427 407,126.5C 406.023,125.226 405.189,125.226 404.5,126.5C 403.833,126.5 403.167,126.5 402.5,126.5C 401.352,101.543 401.186,76.5426 402,51.5C 458.725,96.6067 491.225,155.273 499.5,227.5 Z M 339.5,387.5 C 339.833,387.5 340.167,387.5 340.5,387.5C 349.167,387.5 357.833,387.5 366.5,387.5C 364.621,390.115 362.288,392.281 359.5,394C 362.64,397.812 365.64,401.645 368.5,405.5C 368.5,405.833 368.5,406.167 368.5,406.5C 365.411,408.925 362.078,410.925 358.5,412.5C 356.251,408.246 353.585,404.246 350.5,400.5C 340.773,406.026 331.106,411.526 321.5,417C 323.044,421.249 324.71,425.415 326.5,429.5C 326.5,429.833 326.5,430.167 326.5,430.5C 322.721,431.558 319.054,432.891 315.5,434.5C 314.454,429.341 312.454,424.674 309.5,420.5C 299.661,423.793 289.661,426.46 279.5,428.5C 278.785,433.519 279.118,438.519 280.5,443.5C 276.481,443.646 272.481,443.979 268.5,444.5C 267.746,439.537 267.413,434.537 267.5,429.5C 256.487,430.788 245.487,430.788 234.5,429.5C 232.958,434.377 232.291,439.377 232.5,444.5C 228.519,443.979 224.519,443.646 220.5,443.5C 220.5,443.167 220.5,442.833 220.5,442.5C 221.167,437.833 221.833,433.167 222.5,428.5C 212.908,427.102 203.574,424.769 194.5,421.5C 194.5,415.833 194.5,410.167 194.5,404.5C 239.636,419.898 283.636,417.064 326.5,396C 331.24,393.64 335.574,390.807 339.5,387.5 Z"/></g>
<g><path style="opacity:0.994" fill="#28513d" d="M 220.5,56.5 C 208.547,57.8908 196.88,60.5575 185.5,64.5C 185.586,63.5041 185.252,62.6708 184.5,62C 195.571,57.8988 206.905,54.7322 218.5,52.5C 219.362,53.7658 220.029,55.0992 220.5,56.5 Z"/></g>
<g><path style="opacity:0.305" fill="#535453" d="M 268.5,54.5 C 267.771,59.1304 267.437,63.7971 267.5,68.5C 256.167,68.5 244.833,68.5 233.5,68.5C 232.873,63.8592 232.54,59.1925 232.5,54.5C 244.556,53.2777 256.556,53.2777 268.5,54.5 Z"/></g>
<g><path style="opacity:0.997" fill="#28513d" d="M 308.5,77.5 C 308.5,72.1667 308.5,66.8333 308.5,61.5C 299.315,59.0632 289.982,57.3965 280.5,56.5C 280.5,56.1667 280.5,55.8333 280.5,55.5C 281.334,54.2521 282.667,53.5854 284.5,53.5C 294.751,55.2294 304.751,57.896 314.5,61.5C 314.833,62 315.167,62.5 315.5,63C 313.996,67.5109 312.496,72.0109 311,76.5C 310.329,77.2524 309.496,77.5858 308.5,77.5 Z"/></g>
<g><path style="opacity:0.307" fill="#535453" d="M 220.5,56.5 C 221.167,61.1667 221.833,65.8333 222.5,70.5C 211.525,71.9104 200.858,74.5771 190.5,78.5C 188.247,74.4117 186.581,70.0783 185.5,65.5C 185.5,65.1667 185.5,64.8333 185.5,64.5C 196.88,60.5575 208.547,57.8908 220.5,56.5 Z"/></g>
<g><path style="opacity:0.311" fill="#535453" d="M 280.5,56.5 C 289.982,57.3965 299.315,59.0632 308.5,61.5C 308.5,66.8333 308.5,72.1667 308.5,77.5C 308.167,77.5 307.833,77.5 307.5,77.5C 298.028,74.3821 288.362,72.0488 278.5,70.5C 278.705,65.7285 279.372,61.0618 280.5,56.5 Z"/></g>
<g><path style="opacity:0.995" fill="#29513d" d="M 173.5,69.5 C 162.717,74.3905 152.384,80.0571 142.5,86.5C 141.588,85.2618 141.421,83.9285 142,82.5C 151.434,76.5312 161.267,71.1979 171.5,66.5C 172.425,67.3569 173.092,68.3569 173.5,69.5 Z"/></g>
<g><path style="opacity:1" fill="#27513c" d="M 328.5,66.5 C 339.576,70.8704 349.91,76.537 359.5,83.5C 356.581,88.3397 353.414,93.0064 350,97.5C 340.9,91.698 331.4,86.5314 321.5,82C 323.933,76.8631 326.266,71.6964 328.5,66.5 Z"/></g>
<g><path style="opacity:0.309" fill="#545454" d="M 173.5,69.5 C 173.833,69.5 174.167,69.5 174.5,69.5C 176.13,73.8942 177.63,78.2276 179,82.5C 169.012,87.3258 159.345,92.6591 150,98.5C 147.228,94.612 144.728,90.612 142.5,86.5C 152.384,80.0571 162.717,74.3905 173.5,69.5 Z"/></g>
<g><path style="opacity:0.309" fill="#545454" d="M 307.5,94.5 C 307.5,95.1667 307.833,95.5 308.5,95.5C 308.5,101.833 308.5,108.167 308.5,114.5C 308.167,114.5 307.833,114.5 307.5,114.5C 269.993,98.8756 232.327,98.5423 194.5,113.5C 183.549,111.522 172.216,110.856 160.5,111.5C 162.253,109.777 164.253,108.277 166.5,107C 211.667,82.0832 258.667,77.9166 307.5,94.5 Z"/></g>
<g><path style="opacity:0.994" fill="#29513d" d="M 131.5,93.5 C 128.026,96.8017 124.359,99.9684 120.5,103C 115.234,107.759 110.567,112.925 106.5,118.5C 106.167,118.5 105.833,118.5 105.5,118.5C 105.489,116.983 104.823,115.816 103.5,115C 111.42,106.242 120.087,98.4088 129.5,91.5C 130.522,91.8555 131.189,92.5222 131.5,93.5 Z"/></g>
<g><path style="opacity:1" fill="#27513c" d="M 372.5,92.5 C 372.5,99.8333 372.5,107.167 372.5,114.5C 368.202,111.537 364.202,108.203 360.5,104.5C 363.833,100.167 367.167,95.8333 370.5,91.5C 371.183,91.8627 371.85,92.1961 372.5,92.5 Z"/></g>
<g><path style="opacity:0.308" fill="#545454" d="M 372.5,92.5 C 372.833,92.5 373.167,92.5 373.5,92.5C 382.165,99.4993 390.165,107.166 397.5,115.5C 393.193,119.472 388.859,123.472 384.5,127.5C 380.813,124.145 377.147,120.811 373.5,117.5C 373.443,116.391 373.11,115.391 372.5,114.5C 372.5,107.167 372.5,99.8333 372.5,92.5 Z"/></g>
<g><path style="opacity:0.309" fill="#535453" d="M 131.5,93.5 C 131.833,93.5 132.167,93.5 132.5,93.5C 135.142,97.1484 137.809,100.815 140.5,104.5C 138.327,107.068 135.994,109.401 133.5,111.5C 131.596,111.738 130.262,112.738 129.5,114.5C 124.869,118.63 120.369,122.963 116,127.5C 112.938,124.268 109.771,121.268 106.5,118.5C 110.567,112.925 115.234,107.759 120.5,103C 124.359,99.9684 128.026,96.8017 131.5,93.5 Z"/></g>
<g><path style="opacity:1" fill="#27513c" d="M 308.5,95.5 C 324.707,101.935 339.707,110.435 353.5,121C 360.058,127.065 366.725,132.898 373.5,138.5C 373.5,138.833 373.5,139.167 373.5,139.5C 372.507,148.318 372.173,157.318 372.5,166.5C 358.904,148.076 342.237,132.909 322.5,121C 317.932,118.548 313.265,116.382 308.5,114.5C 308.5,108.167 308.5,101.833 308.5,95.5 Z"/></g>
<g><path style="opacity:0.92" fill="#135032" d="M 133.5,111.5 C 142.167,111.5 150.833,111.5 159.5,111.5C 149.1,119.365 139.1,127.698 129.5,136.5C 129.5,129.167 129.5,121.833 129.5,114.5C 130.262,112.738 131.596,111.738 133.5,111.5 Z"/></g>
<g><path style="opacity:1" fill="#28513d" d="M 159.5,111.5 C 159.833,111.5 160.167,111.5 160.5,111.5C 172.216,110.856 183.549,111.522 194.5,113.5C 167.852,124.148 146.185,141.148 129.5,164.5C 129.5,155.5 129.5,146.5 129.5,137.5C 129.5,137.167 129.5,136.833 129.5,136.5C 139.1,127.698 149.1,119.365 159.5,111.5 Z"/></g>
<g><path style="opacity:0.987" fill="#135032" d="M 194.5,113.5 C 194.5,119.167 194.5,124.833 194.5,130.5C 194.5,130.833 194.5,131.167 194.5,131.5C 193.005,131.415 192.005,132.081 191.5,133.5C 192.275,135.396 193.275,137.063 194.5,138.5C 194.5,139.5 194.5,140.5 194.5,141.5C 194.5,166.5 194.5,191.5 194.5,216.5C 249.167,216.5 303.833,216.5 358.5,216.5C 367.403,246.877 364.403,276.044 349.5,304C 354.5,306.833 359.5,309.667 364.5,312.5C 367.516,307.06 370.516,301.726 373.5,296.5C 373.5,307.167 373.5,317.833 373.5,328.5C 372.766,329.708 372.433,331.041 372.5,332.5C 355.768,355.528 334.435,372.861 308.5,384.5C 308.167,384.5 307.833,384.5 307.5,384.5C 307.5,378.833 307.5,373.167 307.5,367.5C 308.497,364.995 308.497,362.328 307.5,359.5C 307.5,333.5 307.5,307.5 307.5,281.5C 252.5,281.5 197.5,281.5 142.5,281.5C 142.167,281.5 141.833,281.5 141.5,281.5C 141.5,281.167 141.5,280.833 141.5,280.5C 133.214,251.034 136.214,222.701 150.5,195.5C 146.122,191.888 141.289,188.888 136,186.5C 133.807,190.23 131.64,193.897 129.5,197.5C 129.5,187.167 129.5,176.833 129.5,166.5C 129.5,165.833 129.5,165.167 129.5,164.5C 146.185,141.148 167.852,124.148 194.5,113.5 Z"/></g>
<g><path style="opacity:0.968" fill="#135032" d="M 307.5,114.5 C 307.833,114.5 308.167,114.5 308.5,114.5C 313.265,116.382 317.932,118.548 322.5,121C 342.237,132.909 358.904,148.076 372.5,166.5C 372.833,167.833 373.167,169.167 373.5,170.5C 373.5,178.5 373.5,186.5 373.5,194.5C 372.167,194.5 370.833,194.5 369.5,194.5C 369.167,194.5 368.833,194.5 368.5,194.5C 367.705,191.577 366.372,188.91 364.5,186.5C 359.771,189.194 355.104,191.86 350.5,194.5C 350.167,194.5 349.833,194.5 349.5,194.5C 335.5,194.5 321.5,194.5 307.5,194.5C 307.5,175.833 307.5,157.167 307.5,138.5C 308.714,135.796 308.714,133.129 307.5,130.5C 307.5,125.167 307.5,119.833 307.5,114.5 Z"/></g>
<g><path style="opacity:0.306" fill="#545454" d="M 194.5,141.5 C 194.5,140.5 194.5,139.5 194.5,138.5C 194.5,136.167 194.5,133.833 194.5,131.5C 194.5,131.167 194.5,130.833 194.5,130.5C 210.629,122.94 227.629,118.94 245.5,118.5C 245.5,124.5 245.5,130.5 245.5,136.5C 229.348,137.371 214.015,141.371 199.5,148.5C 197.578,146.313 195.912,143.98 194.5,141.5 Z"/></g>
<g><path style="opacity:0.306" fill="#545454" d="M 307.5,130.5 C 308.714,133.129 308.714,135.796 307.5,138.5C 305.595,141.968 303.429,145.302 301,148.5C 286.377,141.136 270.877,137.136 254.5,136.5C 255.074,130.516 255.407,124.516 255.5,118.5C 273.591,119.357 290.924,123.357 307.5,130.5 Z"/></g>
<g><path style="opacity:0.994" fill="#28513d" d="M 97.5,127.5 C 90.4205,136.654 84.0872,146.32 78.5,156.5C 77.0047,156.585 76.0047,155.919 75.5,154.5C 80.4076,145.432 85.9076,136.766 92,128.5C 93.6416,125.232 95.4749,124.899 97.5,127.5 Z"/></g>
<g><path style="opacity:0.31" fill="#545454" d="M 402.5,126.5 C 403.167,126.5 403.833,126.5 404.5,126.5C 411.085,136.004 417.418,145.671 423.5,155.5C 423.5,156.167 423.5,156.833 423.5,157.5C 419.069,159.215 414.735,161.215 410.5,163.5C 404.796,153.935 398.463,144.769 391.5,136C 395.359,132.968 399.026,129.802 402.5,126.5 Z"/></g>
<g><path style="opacity:0.989" fill="#2a513d" d="M 423.5,155.5 C 417.418,145.671 411.085,136.004 404.5,126.5C 405.189,125.226 406.023,125.226 407,126.5C 413.756,135.427 419.922,144.76 425.5,154.5C 425.043,155.298 424.376,155.631 423.5,155.5 Z"/></g>
<g><path style="opacity:0.308" fill="#535454" d="M 97.5,127.5 C 97.8333,127.5 98.1667,127.5 98.5,127.5C 102.275,129.771 105.608,132.605 108.5,136C 102.257,144.42 96.5905,153.254 91.5,162.5C 90.635,163.583 89.635,163.749 88.5,163C 85.2766,160.938 81.9432,159.104 78.5,157.5C 78.5,157.167 78.5,156.833 78.5,156.5C 84.0872,146.32 90.4205,136.654 97.5,127.5 Z"/></g>
<g><path style="opacity:1" fill="#29513d" d="M 194.5,131.5 C 194.5,133.833 194.5,136.167 194.5,138.5C 193.275,137.063 192.275,135.396 191.5,133.5C 192.005,132.081 193.005,131.415 194.5,131.5 Z"/></g>
<g><path style="opacity:0.31" fill="#545454" d="M 129.5,137.5 C 129.5,146.5 129.5,155.5 129.5,164.5C 129.5,165.167 129.5,165.833 129.5,166.5C 100.773,210.553 95.9394,257.22 115,306.5C 118.85,315.551 123.684,323.885 129.5,331.5C 129.5,332.5 129.5,333.5 129.5,334.5C 129.5,343.5 129.5,352.5 129.5,361.5C 93.0437,321.046 79.2104,273.713 88,219.5C 94.2085,188.081 108.042,160.747 129.5,137.5 Z"/></g>
<g><path style="opacity:1" fill="#27513c" d="M 180.5,138.5 C 184.36,142.879 187.694,147.713 190.5,153C 176.711,161.789 165.211,172.956 156,186.5C 151.586,183.376 147.086,180.376 142.5,177.5C 141.479,176.998 141.312,176.332 142,175.5C 152.446,160.551 165.279,148.218 180.5,138.5 Z"/></g>
<g><path style="opacity:1" fill="#27513c" d="M 318.5,138.5 C 333.64,147.466 346.473,159.133 357,173.5C 357.982,174.759 358.315,176.092 358,177.5C 353.667,180.5 349.333,183.5 345,186.5C 335.618,172.951 324.118,161.618 310.5,152.5C 313.19,147.779 315.857,143.112 318.5,138.5 Z"/></g>
<g><path style="opacity:0.309" fill="#545454" d="M 373.5,139.5 C 414.21,188.389 425.043,243.389 406,304.5C 398.709,325.105 387.876,343.438 373.5,359.5C 373.167,359.5 372.833,359.5 372.5,359.5C 372.5,350.5 372.5,341.5 372.5,332.5C 372.433,331.041 372.766,329.708 373.5,328.5C 396.999,290.843 402.832,250.51 391,207.5C 386.965,194.181 381.131,181.848 373.5,170.5C 373.167,169.167 372.833,167.833 372.5,166.5C 372.173,157.318 372.507,148.318 373.5,139.5 Z"/></g>
<g><path style="opacity:0.994" fill="#28513d" d="M 72.5,168.5 C 67.2319,179.305 63.5652,190.638 61.5,202.5C 61.1667,202.5 60.8333,202.5 60.5,202.5C 59.791,201.596 58.791,201.263 57.5,201.5C 59.5518,191.177 62.7185,181.177 67,171.5C 67.7527,168.095 69.586,167.095 72.5,168.5 Z"/></g>
<g><path style="opacity:0.309" fill="#545454" d="M 428.5,167.5 C 428.833,167.5 429.167,167.5 429.5,167.5C 434.367,178.436 438.034,189.769 440.5,201.5C 435.728,203.278 430.728,204.611 425.5,205.5C 423.473,194.92 420.14,184.753 415.5,175C 415.645,174.228 415.978,173.561 416.5,173C 420.646,171.426 424.646,169.593 428.5,167.5 Z"/></g>
<g><path style="opacity:0.988" fill="#2a513e" d="M 429.5,167.5 C 431.411,167.574 432.578,168.574 433,170.5C 435.333,176.5 437.667,182.5 440,188.5C 441.948,192.777 442.448,197.11 441.5,201.5C 441.167,201.5 440.833,201.5 440.5,201.5C 438.034,189.769 434.367,178.436 429.5,167.5 Z"/></g>
<g><path style="opacity:0.309" fill="#535453" d="M 72.5,168.5 C 72.8333,168.5 73.1667,168.5 73.5,168.5C 77.7568,169.962 81.7568,171.962 85.5,174.5C 81.0951,184.721 77.0951,195.054 73.5,205.5C 69.571,204.184 65.571,203.184 61.5,202.5C 63.5652,190.638 67.2319,179.305 72.5,168.5 Z"/></g>
<g><path style="opacity:1" fill="#27513c" d="M 141.5,280.5 C 137.833,280.5 134.167,280.5 130.5,280.5C 130.831,252.995 130.498,225.662 129.5,198.5C 129.5,198.167 129.5,197.833 129.5,197.5C 131.64,193.897 133.807,190.23 136,186.5C 141.289,188.888 146.122,191.888 150.5,195.5C 136.214,222.701 133.214,251.034 141.5,280.5 Z"/></g>
<g><path style="opacity:1" fill="#27513c" d="M 368.5,194.5 C 362.5,194.5 356.5,194.5 350.5,194.5C 355.104,191.86 359.771,189.194 364.5,186.5C 366.372,188.91 367.705,191.577 368.5,194.5 Z"/></g>
<g><path style="opacity:0.306" fill="#535454" d="M 349.5,194.5 C 349.833,194.5 350.167,194.5 350.5,194.5C 356.5,194.5 362.5,194.5 368.5,194.5C 368.833,194.5 369.167,194.5 369.5,194.5C 383.886,227.61 385.219,261.277 373.5,295.5C 372.502,269.339 372.169,243.005 372.5,216.5C 367.833,216.5 363.167,216.5 358.5,216.5C 355.892,209.011 352.892,201.677 349.5,194.5 Z"/></g>
<g><path style="opacity:0.729" fill="#315241" d="M 129.5,198.5 C 130.498,225.662 130.831,252.995 130.5,280.5C 134.167,280.5 137.833,280.5 141.5,280.5C 141.5,280.833 141.5,281.167 141.5,281.5C 137.5,281.5 133.5,281.5 129.5,281.5C 129.5,254.167 129.5,226.833 129.5,199.5C 129.5,199.167 129.5,198.833 129.5,198.5 Z"/></g>
<g><path style="opacity:0.309" fill="#545454" d="M 129.5,199.5 C 129.5,226.833 129.5,254.167 129.5,281.5C 133.5,281.5 137.5,281.5 141.5,281.5C 141.833,281.5 142.167,281.5 142.5,281.5C 144.518,289.554 147.518,297.221 151.5,304.5C 150.833,304.5 150.167,304.5 149.5,304.5C 143.5,304.5 137.5,304.5 131.5,304.5C 131.167,304.5 130.833,304.5 130.5,304.5C 119.294,277.741 116.46,250.074 122,221.5C 123.636,213.755 126.136,206.422 129.5,199.5 Z"/></g>
<g><path style="opacity:0.312" fill="#535453" d="M 443.5,213.5 C 448.286,237.062 448.619,260.729 444.5,284.5C 443.833,284.5 443.5,284.833 443.5,285.5C 438.593,284.181 433.593,283.181 428.5,282.5C 432.462,261 432.462,239.5 428.5,218C 428.905,217.055 429.572,216.388 430.5,216C 434.853,215.164 439.187,214.331 443.5,213.5 Z"/></g>
<g><path style="opacity:0.997" fill="#29513d" d="M 57.5,214.5 C 54.607,237.892 54.9403,261.225 58.5,284.5C 57.1667,284.5 55.8333,284.5 54.5,284.5C 50.5,261.167 50.5,237.833 54.5,214.5C 55.5,214.5 56.5,214.5 57.5,214.5 Z"/></g>
<g><path style="opacity:0.309" fill="#535454" d="M 58.5,213.5 C 62.3935,214.646 66.3935,215.479 70.5,216C 71.1078,217.231 71.4411,218.564 71.5,220C 68.8333,239.667 68.8333,259.333 71.5,279C 71.3248,280.658 70.6582,281.991 69.5,283C 65.8546,283.719 62.1879,284.219 58.5,284.5C 54.9403,261.225 54.607,237.892 57.5,214.5C 58.1667,214.5 58.5,214.167 58.5,213.5 Z"/></g>
<g><path style="opacity:0.992" fill="#2b513e" d="M 443.5,213.5 C 444.5,213.5 445.5,213.5 446.5,213.5C 449.166,235.824 449.166,258.158 446.5,280.5C 446.415,282.333 445.748,283.666 444.5,284.5C 448.619,260.729 448.286,237.062 443.5,213.5 Z"/></g>
<g><path style="opacity:1" fill="#27513c" d="M 358.5,216.5 C 363.167,216.5 367.833,216.5 372.5,216.5C 372.169,243.005 372.502,269.339 373.5,295.5C 373.5,295.833 373.5,296.167 373.5,296.5C 370.516,301.726 367.516,307.06 364.5,312.5C 359.5,309.667 354.5,306.833 349.5,304C 364.403,276.044 367.403,246.877 358.5,216.5 Z"/></g>
<g><path style="opacity:0.306" fill="#545454" d="M 73.5,330.5 C 73.1667,330.5 72.8333,330.5 72.5,330.5C 67.6343,319.569 63.9676,308.236 61.5,296.5C 65.3365,295.582 69.1699,294.582 73,293.5C 73.5,293.833 74,294.167 74.5,294.5C 77.3763,304.796 81.043,314.796 85.5,324.5C 81.7522,327.041 77.7522,329.041 73.5,330.5 Z"/></g>
<g><path style="opacity:0.309" fill="#545454" d="M 441.5,296.5 C 441.5,296.833 441.5,297.167 441.5,297.5C 438.096,309.044 434.096,320.377 429.5,331.5C 429.167,331.5 428.833,331.5 428.5,331.5C 423.906,329.534 419.573,327.034 415.5,324C 420.14,314.247 423.473,304.08 425.5,293.5C 430.833,294.5 436.167,295.5 441.5,296.5 Z"/></g>
<g><path style="opacity:0.996" fill="#29513d" d="M 60.5,296.5 C 60.8333,296.5 61.1667,296.5 61.5,296.5C 63.9676,308.236 67.6343,319.569 72.5,330.5C 71.0331,331.292 69.6998,331.292 68.5,330.5C 64.0367,320.11 60.3701,309.444 57.5,298.5C 58.6016,297.824 59.6016,297.158 60.5,296.5 Z"/></g>
<g><path style="opacity:0.981" fill="#135032" d="M 130.5,304.5 C 130.833,304.5 131.167,304.5 131.5,304.5C 132.735,307.301 134.235,309.968 136,312.5C 140.67,309.97 145.17,307.303 149.5,304.5C 150.167,304.5 150.833,304.5 151.5,304.5C 165.833,304.5 180.167,304.5 194.5,304.5C 194.5,322.167 194.5,339.833 194.5,357.5C 194.5,361.167 194.5,364.833 194.5,368.5C 194.5,374.167 194.5,379.833 194.5,385.5C 168.093,374.472 146.426,357.472 129.5,334.5C 129.5,333.5 129.5,332.5 129.5,331.5C 129.173,322.318 129.507,313.318 130.5,304.5 Z"/></g>
<g><path style="opacity:0.992" fill="#2a513e" d="M 441.5,297.5 C 442.124,297.917 442.457,298.584 442.5,299.5C 440.095,310.214 436.595,320.548 432,330.5C 431.329,331.252 430.496,331.586 429.5,331.5C 434.096,320.377 438.096,309.044 441.5,297.5 Z"/></g>
<g><path style="opacity:1" fill="#27513c" d="M 131.5,304.5 C 137.5,304.5 143.5,304.5 149.5,304.5C 145.17,307.303 140.67,309.97 136,312.5C 134.235,309.968 132.735,307.301 131.5,304.5 Z"/></g>
<g><path style="opacity:1" fill="#27513c" d="M 154.5,312.5 C 161.11,320.096 168.11,327.596 175.5,335C 180.5,338.667 185.5,342.333 190.5,346C 187.706,351.09 184.54,355.923 181,360.5C 165.472,350.006 152.306,337.172 141.5,322C 146.015,318.97 150.349,315.803 154.5,312.5 Z"/></g>
<g><path style="opacity:1" fill="#27513c" d="M 344.5,312.5 C 348.615,314.775 352.615,317.275 356.5,320C 358.007,320.837 358.507,322.004 358,323.5C 347.578,338.59 334.578,350.923 319,360.5C 315.74,355.638 313.074,350.638 311,345.5C 324.332,336.606 335.498,325.606 344.5,312.5 Z"/></g>
<g><path style="opacity:1" fill="#28513d" d="M 372.5,332.5 C 372.5,341.5 372.5,350.5 372.5,359.5C 362.722,369.951 352.055,379.285 340.5,387.5C 340.167,387.5 339.833,387.5 339.5,387.5C 329.167,387.5 318.833,387.5 308.5,387.5C 308.5,386.5 308.5,385.5 308.5,384.5C 334.435,372.861 355.768,355.528 372.5,332.5 Z"/></g>
<g><path style="opacity:0.308" fill="#545454" d="M 98.5,371.5 C 98.1667,371.5 97.8333,371.5 97.5,371.5C 90.1564,362.148 83.8231,352.148 78.5,341.5C 78.5,341.167 78.5,340.833 78.5,340.5C 82.3702,338.983 86.2036,337.316 90,335.5C 95.9737,344.148 101.974,352.815 108,361.5C 108.667,362.167 108.667,362.833 108,363.5C 104.895,366.293 101.728,368.96 98.5,371.5 Z"/></g>
<g><path style="opacity:0.31" fill="#545454" d="M 423.5,341.5 C 423.5,341.833 423.5,342.167 423.5,342.5C 417.93,353.052 411.597,363.052 404.5,372.5C 403.833,372.5 403.167,372.5 402.5,372.5C 399.026,369.198 395.359,366.032 391.5,363C 397.954,354.595 403.788,345.762 409,336.5C 410.049,335.483 411.216,335.316 412.5,336C 415.91,338.372 419.577,340.205 423.5,341.5 Z"/></g>
<g><path style="opacity:1" fill="#28513d" d="M 129.5,334.5 C 146.426,357.472 168.093,374.472 194.5,385.5C 194.5,391.833 194.5,398.167 194.5,404.5C 169.64,394.909 147.973,380.576 129.5,361.5C 129.5,352.5 129.5,343.5 129.5,334.5 Z"/></g>
<g><path style="opacity:0.996" fill="#29513d" d="M 78.5,341.5 C 83.8231,352.148 90.1564,362.148 97.5,371.5C 96.5416,371.953 95.7083,372.619 95,373.5C 87.5089,364.523 81.0089,354.857 75.5,344.5C 76.1882,343.145 77.1882,342.145 78.5,341.5 Z"/></g>
<g><path style="opacity:0.306" fill="#545454" d="M 194.5,368.5 C 194.5,364.833 194.5,361.167 194.5,357.5C 195.912,355.02 197.578,352.687 199.5,350.5C 214.038,357.569 229.372,361.569 245.5,362.5C 245.5,368.5 245.5,374.5 245.5,380.5C 227.698,379.799 210.698,375.799 194.5,368.5 Z"/></g>
<g><path style="opacity:0.307" fill="#545454" d="M 307.5,359.5 C 308.497,362.328 308.497,364.995 307.5,367.5C 291.066,375.275 273.732,379.609 255.5,380.5C 255.407,374.484 255.074,368.484 254.5,362.5C 270.791,361.552 286.291,357.552 301,350.5C 303.178,353.537 305.345,356.537 307.5,359.5 Z"/></g>
<g><path style="opacity:0.986" fill="#2a513d" d="M 423.5,342.5 C 424.289,342.783 424.956,343.283 425.5,344C 419.699,354.439 413.033,364.272 405.5,373.5C 404.893,373.376 404.56,373.043 404.5,372.5C 411.597,363.052 417.93,353.052 423.5,342.5 Z"/></g>
<g><path style="opacity:0.915" fill="#135032" d="M 372.5,359.5 C 372.833,359.5 373.167,359.5 373.5,359.5C 373.5,366.833 373.5,374.167 373.5,381.5C 372.659,383.379 372.325,385.379 372.5,387.5C 370.5,387.5 368.5,387.5 366.5,387.5C 357.833,387.5 349.167,387.5 340.5,387.5C 352.055,379.285 362.722,369.951 372.5,359.5 Z"/></g>
<g><path style="opacity:0.308" fill="#545454" d="M 129.5,383.5 C 129.5,384.167 129.5,384.833 129.5,385.5C 129.5,392.833 129.5,400.167 129.5,407.5C 119.815,400.626 110.815,392.793 102.5,384C 106.72,379.277 111.387,375.11 116.5,371.5C 120.227,376.23 124.56,380.23 129.5,383.5 Z"/></g>
<g><path style="opacity:0.309" fill="#545454" d="M 395.5,381.5 C 395.5,381.833 395.5,382.167 395.5,382.5C 390.035,387.464 384.702,392.63 379.5,398C 376.208,401.138 372.542,403.638 368.5,405.5C 365.64,401.645 362.64,397.812 359.5,394C 362.288,392.281 364.621,390.115 366.5,387.5C 368.5,387.5 370.5,387.5 372.5,387.5C 372.325,385.379 372.659,383.379 373.5,381.5C 377.147,378.189 380.813,374.855 384.5,371.5C 388.213,374.884 391.879,378.217 395.5,381.5 Z"/></g>
<g><path style="opacity:0.994" fill="#2a513d" d="M 395.5,382.5 C 396.043,382.56 396.376,382.893 396.5,383.5C 388.834,392.332 380.334,400.332 371,407.5C 370.329,406.748 369.496,406.414 368.5,406.5C 368.5,406.167 368.5,405.833 368.5,405.5C 372.542,403.638 376.208,401.138 379.5,398C 384.702,392.63 390.035,387.464 395.5,382.5 Z"/></g>
<g><path style="opacity:0.309" fill="#545454" d="M 307.5,384.5 C 307.833,384.5 308.167,384.5 308.5,384.5C 308.5,385.5 308.5,386.5 308.5,387.5C 318.833,387.5 329.167,387.5 339.5,387.5C 335.574,390.807 331.24,393.64 326.5,396C 283.636,417.064 239.636,419.898 194.5,404.5C 194.5,398.167 194.5,391.833 194.5,385.5C 232.335,400.398 270.002,400.065 307.5,384.5 Z"/></g>
<g><path style="opacity:1" fill="#28513d" d="M 129.5,385.5 C 133.291,388.118 136.957,390.951 140.5,394C 137.173,398.846 133.507,403.346 129.5,407.5C 129.5,400.167 129.5,392.833 129.5,385.5 Z"/></g>
<g><path style="opacity:0.309" fill="#545454" d="M 358.5,412.5 C 358.5,412.833 358.5,413.167 358.5,413.5C 348.664,420.418 337.997,425.752 326.5,429.5C 324.71,425.415 323.044,421.249 321.5,417C 331.106,411.526 340.773,406.026 350.5,400.5C 353.585,404.246 356.251,408.246 358.5,412.5 Z"/></g>
<g><path style="opacity:1" fill="#27513c" d="M 149.5,401.5 C 158.867,406.602 168.367,411.602 178,416.5C 176.626,421.943 174.626,427.276 172,432.5C 160.807,427.822 150.307,421.989 140.5,415C 143.722,410.618 146.722,406.118 149.5,401.5 Z"/></g>
<g><path style="opacity:0.991" fill="#2a513d" d="M 358.5,413.5 C 358.611,414.117 358.944,414.617 359.5,415C 349.904,421.718 339.737,427.551 329,432.5C 328.292,431.619 327.458,430.953 326.5,430.5C 326.5,430.167 326.5,429.833 326.5,429.5C 337.997,425.752 348.664,420.418 358.5,413.5 Z"/></g>
<g><path style="opacity:0.309" fill="#545454" d="M 315.5,434.5 C 304.24,438.147 292.907,441.147 281.5,443.5C 281.167,443.5 280.833,443.5 280.5,443.5C 279.118,438.519 278.785,433.519 279.5,428.5C 289.661,426.46 299.661,423.793 309.5,420.5C 312.454,424.674 314.454,429.341 315.5,434.5 Z"/></g>
<g><path style="opacity:0.998" fill="#29513d" d="M 194.5,421.5 C 194.172,426.875 194.505,432.208 195.5,437.5C 203.554,440.555 211.888,442.222 220.5,442.5C 220.5,442.833 220.5,443.167 220.5,443.5C 219.601,444.472 218.434,445.138 217,445.5C 206.202,443.908 195.702,441.242 185.5,437.5C 185.167,437.167 184.833,436.833 184.5,436.5C 186.468,431.573 188.134,426.573 189.5,421.5C 191.167,421.5 192.833,421.5 194.5,421.5 Z"/></g>
<g><path style="opacity:0.31" fill="#535454" d="M 194.5,421.5 C 203.574,424.769 212.908,427.102 222.5,428.5C 221.833,433.167 221.167,437.833 220.5,442.5C 211.888,442.222 203.554,440.555 195.5,437.5C 194.505,432.208 194.172,426.875 194.5,421.5 Z"/></g>
<g><path style="opacity:0.308" fill="#545454" d="M 268.5,444.5 C 256.486,445.76 244.486,445.76 232.5,444.5C 232.291,439.377 232.958,434.377 234.5,429.5C 245.487,430.788 256.487,430.788 267.5,429.5C 267.413,434.537 267.746,439.537 268.5,444.5 Z"/></g>
<g><path style="opacity:0.995" fill="#2a513d" d="M 315.5,434.5 C 315.64,436.124 314.973,437.29 313.5,438C 304.011,441.198 294.344,443.698 284.5,445.5C 282.97,445.36 281.97,444.693 281.5,443.5C 292.907,441.147 304.24,438.147 315.5,434.5 Z"/></g>
<g><path style="opacity:0.986" fill="#28513d" d="M 232.5,444.5 C 244.486,445.76 256.486,445.76 268.5,444.5C 268.5,445.5 268.5,446.5 268.5,447.5C 256.493,448.811 244.493,448.811 232.5,447.5C 232.5,446.5 232.5,445.5 232.5,444.5 Z"/></g>
</svg>
