<?xml version="1.0" standalone="no"?>
<!DOCTYPE svg PUBLIC "-//W3C//DTD SVG 20010904//EN"
 "http://www.w3.org/TR/2001/REC-SVG-20010904/DTD/svg10.dtd">
<svg version="1.0" xmlns="http://www.w3.org/2000/svg"
 width="634.000000pt" height="634.000000pt" viewBox="0 0 634.000000 634.000000"
 preserveAspectRatio="xMidYMid meet">

<g transform="translate(0.000000,634.000000) scale(0.100000,-0.100000)"
fill="#000000" stroke="none">
<path d="M3038 5443 c12 -2 30 -2 40 0 9 3 -1 5 -23 4 -22 0 -30 -2 -17 -4z"/>
<path d="M2101 5421 c-8 -5 -21 -6 -30 -3 -14 5 -14 3 -2 -11 7 -9 18 -14 25
-10 6 4 24 8 40 9 20 1 24 -1 15 -7 -12 -7 -12 -9 0 -9 8 0 12 -3 9 -6 -4 -3
-16 0 -28 6 -16 9 -25 9 -36 0 -11 -10 -18 -8 -32 10 -12 15 -24 20 -31 15
-10 -6 -10 -9 -1 -15 8 -5 7 -9 -5 -13 -9 -4 -13 -3 -10 2 3 5 1 12 -5 16 -5
3 -10 1 -10 -5 0 -6 -5 -8 -10 -5 -7 4 -9 -2 -7 -17 2 -12 2 -17 0 -10 -4 10
-10 9 -25 -5 -21 -18 -21 -18 -9 4 11 21 9 21 -29 -4 -38 -25 -39 -28 -23 -45
9 -10 23 -18 32 -18 14 0 14 -2 1 -10 -12 -8 -11 -10 7 -10 17 0 21 4 17 18
-4 13 -3 14 4 4 5 -8 12 -13 16 -13 16 2 18 0 6 -13 -6 -9 -19 -12 -28 -8 -9
3 9 -20 41 -51 55 -53 77 -63 77 -34 0 7 -4 6 -11 -3 -9 -13 -10 -13 -6 1 3 9
0 23 -6 30 -7 7 -2 5 11 -5 13 -12 20 -26 17 -37 -4 -12 5 -23 29 -37 20 -12
38 -17 41 -11 4 5 1 9 -6 9 -7 0 -9 3 -5 7 4 4 18 -5 32 -20 14 -15 31 -27 38
-27 18 0 38 25 28 35 -4 5 -1 5 6 1 10 -6 10 -11 2 -21 -9 -10 -6 -14 11 -17
12 -2 25 -9 27 -17 4 -11 -2 -12 -29 -6 -19 4 -45 9 -59 11 -22 4 -23 3 -5 -5
18 -9 17 -10 -7 -8 -15 1 -25 4 -22 8 2 4 -3 10 -12 13 -8 3 -12 2 -9 -4 3 -6
1 -10 -4 -10 -6 0 -11 4 -11 9 0 5 -7 12 -16 15 -9 3 -12 2 -9 -4 4 -6 3 -10
-2 -9 -4 1 -15 1 -23 -1 -11 -1 -10 -4 5 -11 19 -9 19 -9 -2 -5 -12 2 -24 -1
-25 -6 -3 -7 -11 -7 -26 1 -19 10 -22 9 -22 -5 0 -16 -2 -16 -20 1 l-20 18 23
16 c13 10 22 24 20 36 -2 13 -1 15 4 5 3 -8 11 -18 17 -22 6 -4 -1 -11 -17
-17 -15 -6 -27 -16 -27 -22 0 -8 4 -9 13 0 8 6 16 8 20 5 3 -3 12 3 19 15 7
12 17 21 22 21 5 0 2 -8 -7 -18 -10 -10 -17 -23 -17 -28 1 -5 9 1 19 13 10 12
21 19 25 16 3 -4 6 -1 6 5 0 10 -38 28 -52 24 -5 -1 -8 2 -8 8 0 5 -10 14 -21
21 -13 6 -19 7 -15 1 3 -6 1 -12 -4 -14 -6 -2 -12 -13 -13 -26 0 -12 -7 -22
-15 -22 -7 0 -11 -4 -8 -8 3 -5 -4 -16 -15 -25 -11 -10 -17 -23 -13 -29 4 -6
3 -8 -4 -4 -6 3 -13 2 -16 -3 -3 -5 1 -12 10 -15 17 -6 10 -26 -9 -26 -8 0 -8
3 1 9 10 6 9 10 -7 14 -16 4 -27 -2 -43 -23 -12 -16 -26 -27 -31 -23 -5 3 -7
0 -5 -8 3 -8 11 -13 17 -11 7 1 9 -2 6 -8 -5 -8 -14 -5 -28 7 -12 10 -17 12
-12 4 6 -11 4 -13 -11 -8 -15 6 -14 4 4 -11 21 -17 22 -18 3 -18 -11 0 -18 3
-15 7 2 4 -3 9 -11 13 -9 3 -21 -5 -31 -22 -8 -15 -13 -19 -10 -9 3 9 3 17 0
17 -12 0 -53 -38 -48 -43 3 -3 -5 -3 -18 -1 -22 5 -22 5 -4 -10 11 -9 23 -16
28 -16 4 0 8 -5 8 -11 0 -8 -4 -8 -12 -2 -19 15 -51 12 -71 -5 -16 -14 -17
-14 -12 0 4 9 2 19 -4 23 -6 3 -11 1 -11 -4 0 -6 -8 -11 -19 -11 -10 0 -30 -9
-44 -20 -14 -11 -29 -20 -34 -20 -4 0 -24 -14 -43 -31 -19 -17 -28 -27 -20
-23 13 7 13 5 2 -8 -11 -14 -10 -18 5 -27 10 -6 12 -11 6 -11 -7 0 -13 -5 -13
-11 0 -5 6 -7 13 -3 9 6 9 4 -1 -8 -9 -11 -12 -50 -10 -137 l2 -121 27 26 c28
27 36 69 11 59 -7 -2 -11 -1 -7 4 3 5 -1 12 -7 14 -10 4 -10 6 0 6 6 1 12 6
12 12 0 5 -6 7 -12 3 -10 -6 -10 -4 0 7 15 16 16 33 0 23 -7 -4 -8 -3 -4 4 14
24 26 11 23 -23 -3 -19 0 -35 4 -35 5 0 10 10 10 23 1 16 2 18 6 5 2 -10 9
-18 15 -18 5 0 7 7 4 16 -3 8 -2 12 4 9 17 -10 11 -25 -12 -35 -15 -6 -17 -9
-7 -9 9 -1 24 8 34 19 15 17 16 22 4 37 -9 11 -10 14 -1 9 6 -4 12 -2 12 3 0
6 5 11 11 11 8 0 8 -5 -1 -15 -18 -21 -7 -19 20 5 25 22 36 25 44 11 3 -5 -1
-12 -10 -15 -13 -5 -14 -9 -4 -21 7 -9 10 -18 6 -22 -3 -3 -6 -1 -6 6 0 7 -5
9 -10 6 -8 -5 -7 -12 2 -23 7 -10 8 -14 4 -10 -5 4 -15 3 -23 -3 -9 -9 -13 -8
-13 0 0 6 5 11 12 11 6 0 8 3 5 7 -4 3 -2 12 4 20 7 8 8 13 1 13 -5 0 -17 -10
-25 -22 -8 -13 -31 -40 -51 -62 -20 -21 -36 -45 -36 -52 0 -8 -5 -14 -11 -14
-5 0 -7 -5 -4 -10 3 -6 17 -8 31 -6 13 3 22 1 19 -4 -3 -5 -19 -7 -36 -5 -25
3 -29 2 -20 -9 11 -14 5 -26 -13 -26 -6 0 -4 5 4 11 12 8 12 10 1 7 -8 -2 -16
-17 -18 -32 -3 -20 0 -26 8 -20 8 4 9 3 5 -5 -4 -6 -11 -9 -16 -6 -15 9 -19
-24 -5 -39 8 -7 11 -16 8 -20 -4 -3 -1 -6 5 -6 7 0 12 -5 12 -11 0 -5 -6 -7
-12 -3 -10 6 -10 4 0 -8 9 -11 10 -18 2 -23 -15 -9 -13 -615 2 -615 6 0 4 -8
-5 -18 -20 -22 -23 -47 -4 -36 8 5 8 2 -2 -9 -12 -16 -8 -22 12 -18 5 1 6 -3
3 -8 -6 -9 23 -39 31 -33 3 2 8 0 11 -4 4 -4 1 -4 -5 0 -19 11 -16 -2 6 -25
18 -19 20 -19 29 -4 8 16 9 16 15 1 4 -10 3 -15 -2 -12 -15 10 -18 -18 -4 -44
11 -22 18 -16 14 12 0 3 16 4 37 1 20 -3 45 -6 54 -6 9 -1 15 -4 12 -8 -2 -4
3 -10 12 -13 24 -9 31 -7 14 4 -11 7 -11 10 -2 10 8 0 10 5 6 13 -4 6 -3 8 2
4 11 -10 14 -58 2 -51 -4 3 -8 -2 -8 -11 0 -9 3 -14 8 -12 4 3 7 -5 8 -16 0
-12 4 -35 8 -52 11 -46 13 -69 14 -213 2 -94 5 -131 13 -126 8 4 8 1 1 -12 -5
-11 -8 -40 -7 -66 1 -26 -1 -45 -6 -43 -10 7 -10 -82 1 -109 6 -16 8 -11 6 19
-2 22 1 45 5 50 13 18 17 103 5 116 -8 9 -7 11 7 6 13 -5 17 -1 17 17 0 22 10
56 40 131 l11 29 28 -49 c15 -28 46 -75 69 -105 94 -121 142 -271 144 -442 0
-48 4 -88 9 -88 4 0 8 15 8 33 1 17 4 87 7 155 6 123 -13 263 -37 277 -5 4 -9
106 -9 241 0 215 -2 237 -20 271 -29 54 -25 123 6 123 11 0 14 22 14 109 l0
109 -51 108 c-54 117 -95 184 -113 184 -6 0 -21 11 -33 23 -29 31 -108 37
-129 10 -13 -17 -14 -17 -8 0 3 9 1 17 -5 17 -6 0 -11 -7 -11 -15 0 -7 -8 -19
-17 -25 -15 -9 -13 -10 12 -6 l30 6 -25 -14 c-18 -11 -28 -11 -38 -3 -11 9 -9
14 10 29 13 9 18 18 11 18 -6 0 -15 -4 -18 -10 -3 -5 -11 -10 -16 -10 -6 0 -7
5 -3 12 5 7 3 8 -7 2 -8 -5 -16 -9 -19 -10 -33 -6 -48 -34 -19 -34 6 0 7 5 3
12 -5 7 -3 8 6 3 7 -4 16 -2 21 6 6 9 9 10 9 2 0 -6 -5 -15 -12 -19 -17 -11
-59 -13 -52 -3 3 5 -1 9 -8 9 -10 0 -10 2 1 9 8 5 16 17 17 25 1 9 -2 14 -7
10 -5 -3 -6 -11 -3 -17 4 -7 3 -8 -1 -4 -12 10 -16 39 -5 32 5 -3 16 7 24 22
8 15 15 24 16 20 0 -5 -5 -17 -10 -28 -14 -25 14 -27 29 -1 6 9 11 13 11 8 0
-5 11 3 25 18 14 15 25 35 24 44 0 14 -3 13 -16 -5 -8 -13 -20 -23 -25 -23 -5
0 -2 7 6 16 9 8 13 20 10 26 -5 7 -2 8 5 4 8 -6 11 -2 9 10 -2 13 2 18 14 16
12 -2 16 3 13 19 -3 16 -1 18 9 10 7 -6 17 -7 22 -3 4 4 2 -1 -5 -10 -17 -22
2 -24 19 -3 9 11 16 13 24 5 5 -5 18 -10 28 -10 11 0 18 -7 18 -19 0 -22 26
-36 34 -18 2 7 5 5 5 -5 1 -11 8 -16 21 -13 11 2 18 0 15 -6 -7 -10 8 -12 19
-2 12 12 33 11 33 -2 0 -8 -9 -12 -20 -9 -20 3 -20 3 0 -19 46 -51 108 -155
114 -192 6 -37 7 -35 8 20 1 53 -3 66 -34 113 -20 28 -40 52 -46 52 -8 0 -7 5
1 15 9 11 9 15 1 15 -7 0 -9 5 -5 11 5 8 10 6 16 -5 7 -13 13 -14 23 -6 17 14
35 -15 35 -59 0 -25 4 -31 21 -31 20 0 21 4 16 55 -5 47 -3 55 13 60 24 8 22
43 -3 51 -16 5 -17 8 -6 15 20 13 37 11 19 -2 -13 -9 -13 -10 2 -6 12 4 16 1
13 -14 -2 -12 2 -19 11 -19 22 0 17 13 -23 66 -21 27 -37 50 -35 52 1 1 -1 2
-5 2 -5 0 -8 -10 -8 -23 1 -16 6 -21 20 -20 11 1 14 0 7 -3 -6 -3 -9 -11 -6
-16 4 -6 2 -8 -4 -4 -6 3 -12 1 -15 -6 -2 -7 -3 -5 -2 4 2 10 0 20 -5 23 -9 5
-7 33 5 59 4 10 4 21 -1 25 -5 3 -10 28 -12 55 -2 35 -10 54 -25 68 -12 11
-17 17 -11 14 17 -8 25 21 18 60 -4 24 -2 34 6 34 8 0 11 9 7 25 -2 14 4 42
13 61 10 19 17 51 15 72 -1 20 0 26 2 12 5 -23 6 -24 13 -5 8 18 9 17 9 -7 1
-14 4 -34 8 -44 4 -12 3 -15 -5 -10 -7 4 -13 4 -13 -1 -1 -4 -4 -19 -6 -33
-11 -56 -13 -155 -3 -135 8 17 9 14 9 -15 -1 -52 -1 -52 23 -36 12 9 42 16 66
16 32 0 41 3 36 13 -6 9 -5 9 7 0 12 -10 18 -10 29 0 10 9 11 9 6 -1 -4 -7 -1
-15 9 -18 9 -4 14 -13 11 -20 -3 -8 -1 -14 3 -14 5 0 8 -11 7 -25 -2 -14 3
-30 10 -36 7 -6 11 -16 8 -23 -3 -8 2 -21 11 -30 9 -9 14 -16 11 -16 -4 0 0
-15 8 -34 8 -19 17 -61 21 -93 14 -130 15 -133 41 -133 21 0 24 5 24 38 0 44
26 207 35 222 4 6 1 18 -6 26 -10 12 -9 13 5 8 9 -3 16 -1 16 5 0 6 -6 11 -12
11 -8 0 -6 5 4 10 10 6 15 19 13 30 -2 11 1 20 7 20 6 0 8 3 5 7 -4 3 1 12 11
20 16 12 16 13 0 7 -11 -4 -18 -1 -18 6 0 6 5 8 10 5 19 -11 10 7 -12 26 -11
11 -24 17 -27 14 -3 -4 0 -10 8 -14 18 -11 18 -15 2 -35 -8 -9 -11 -19 -8 -23
4 -3 1 -13 -6 -21 -10 -13 -9 -14 3 -7 12 7 13 6 4 -6 -18 -22 -34 -88 -23
-95 5 -3 9 -10 9 -15 0 -6 -4 -8 -9 -4 -16 10 -23 -15 -9 -32 7 -9 8 -14 2
-10 -13 8 -24 -13 -24 -46 0 -16 -3 -18 -11 -10 -7 7 -12 32 -12 57 0 25 -4
46 -8 46 -5 0 -6 -6 -3 -14 3 -8 0 -17 -7 -22 -8 -4 -10 -3 -5 5 4 6 2 18 -4
26 -10 12 -9 15 9 15 17 0 20 4 13 18 -9 18 -8 96 1 145 8 37 -1 57 -21 51
-15 -5 -15 -4 0 9 10 8 14 18 10 23 -4 4 0 3 9 -4 12 -9 18 -9 28 1 10 9 11 8
5 -6 -4 -10 -13 -16 -21 -13 -8 3 -12 2 -9 -3 8 -12 66 -20 72 -10 6 11 36 -1
51 -20 11 -14 12 -14 13 -1 0 9 -6 22 -12 30 -11 12 -10 12 5 0 13 -9 16 -21
12 -38 -3 -13 -2 -21 3 -18 5 3 9 -1 9 -9 0 -8 -4 -12 -9 -9 -11 7 -10 -3 2
-25 5 -10 10 -59 11 -107 1 -49 4 -82 7 -74 9 28 44 49 68 40 15 -6 24 -5 28
3 2 7 5 4 5 -5 1 -10 8 -18 17 -18 9 0 12 5 8 13 -6 8 -3 8 9 -1 9 -8 15 -17
14 -20 -4 -13 56 -71 66 -65 6 3 7 2 4 -4 -4 -6 3 -27 13 -49 l20 -38 0 39 c0
22 -5 69 -11 105 -6 36 -11 73 -12 83 -1 9 -6 17 -13 17 -11 0 -38 49 -30 57
2 2 7 -5 11 -16 3 -12 11 -21 16 -21 11 0 12 -3 -7 61 -22 79 -35 109 -44 104
-11 -7 -6 22 5 32 4 4 5 3 2 -3 -4 -7 0 -15 9 -18 25 -10 27 -7 13 12 -13 15
-12 16 4 3 13 -10 15 -17 6 -27 -9 -11 -8 -14 4 -14 9 0 19 -5 23 -12 5 -7 2
-9 -8 -5 -12 4 -14 1 -11 -14 3 -10 9 -16 14 -13 5 3 6 -3 2 -12 -4 -12 -3
-15 5 -10 8 5 10 2 6 -8 -4 -10 1 -18 11 -22 11 -5 13 -9 5 -14 -8 -5 -5 -24
10 -68 12 -34 19 -65 16 -70 -3 -5 0 -54 6 -110 l11 -102 123 0 123 0 10 37
c6 20 15 59 21 87 5 28 14 71 19 96 l10 45 -2 -55 c0 -30 -7 -75 -15 -100 -7
-25 -15 -100 -17 -167 -3 -110 -2 -122 15 -126 10 -2 24 -1 31 4 11 6 9 13 -7
31 -12 13 -24 30 -29 38 -4 8 4 2 19 -15 l25 -30 1 78 0 77 29 0 30 0 -41 59
c-22 32 -39 64 -36 71 2 6 24 -19 49 -57 l45 -68 111 -5 111 -5 183 -220 c101
-121 201 -238 222 -260 l38 -40 -5 135 c-3 74 -7 151 -10 170 -5 29 -4 31 3
10 6 -17 9 13 8 90 0 63 -2 94 -4 68 -2 -27 -8 -48 -13 -48 -4 0 -6 -19 -4
-42 6 -60 -2 -38 -26 71 -11 52 -33 122 -49 155 -34 72 -97 149 -114 139 -7
-3 -9 -3 -5 2 10 11 -10 45 -27 45 -12 0 -15 -15 -15 -67 -1 -168 -87 -224
-231 -150 -35 17 -64 37 -64 44 0 6 -4 15 -9 20 -5 5 -6 3 -2 -4 14 -24 -7
-13 -60 33 -48 40 -54 50 -54 84 0 21 -4 42 -10 45 -6 4 -7 -6 -3 -27 6 -30 5
-32 -11 -19 -22 18 -47 66 -39 74 7 8 -17 38 -26 33 -3 -2 -5 23 -4 57 1 46
-3 64 -15 75 -16 13 -16 13 1 8 12 -4 17 0 17 15 0 15 5 19 15 15 12 -4 14 0
9 19 -3 14 -4 25 -1 25 11 0 45 -165 46 -222 1 -21 5 -38 9 -38 4 0 5 30 1 68
-5 37 -11 94 -14 127 -3 33 -14 94 -23 135 -9 41 -16 92 -16 112 0 25 -3 33
-9 25 -5 -7 -6 2 -3 23 5 27 3 31 -5 20 -8 -11 -9 -7 -5 20 4 21 3 30 -3 22
-13 -21 -22 46 -12 91 5 20 7 37 4 37 -3 0 1 8 8 17 12 15 12 16 -6 10 l-20
-7 20 16 c20 16 20 16 -3 11 -19 -4 -26 0 -36 24 -7 16 -16 26 -21 22 -5 -5
-1 3 8 17 17 25 23 71 10 84 -11 10 -12 37 -2 30 5 -3 7 -10 4 -15 -4 -5 -1
-9 4 -9 6 0 11 9 11 20 0 11 -6 20 -12 20 -9 0 -9 3 1 9 9 6 12 19 8 37 -3 19
1 38 15 56 10 15 16 32 13 38 -3 5 5 15 19 22 14 6 26 15 26 20 0 5 5 6 12 2
6 -4 8 -3 4 4 -3 5 -1 12 6 14 7 3 5 7 -6 11 -10 4 -15 3 -11 -3 3 -6 1 -10
-4 -10 -6 0 -11 4 -11 10 0 5 -7 6 -17 3 -9 -4 -14 -2 -10 3 3 6 -11 10 -33
10 -22 0 -37 -3 -34 -7 2 -4 -10 -14 -28 -23 l-33 -16 25 21 25 22 -25 -8
c-14 -4 -27 -12 -28 -16 -2 -5 -8 -7 -12 -4 -12 7 -51 -15 -68 -37 -7 -9 -19
-15 -26 -12 -8 3 -17 1 -21 -5 -3 -6 -11 -11 -16 -11 -6 0 -7 5 -3 12 4 6 3 8
-4 4 -13 -8 -11 -21 18 -106 23 -70 43 -106 88 -163 l29 -36 1 27 c3 60 7 80
17 79 6 -1 10 12 10 30 0 17 4 35 8 39 4 5 5 1 2 -8 -4 -9 -1 -19 6 -24 8 -4
10 -3 5 4 -4 7 -1 12 8 12 8 0 17 6 19 13 4 9 6 9 6 0 1 -6 -3 -15 -9 -18 -16
-10 -12 -45 5 -45 8 0 15 -4 15 -10 0 -5 -6 -7 -12 -5 -10 4 -14 -14 -16 -67
-1 -39 -4 -74 -6 -75 -2 -2 -11 3 -20 12 -26 27 -18 -1 15 -51 46 -66 90 -177
96 -240 6 -53 5 -54 -18 -51 -12 2 -25 10 -27 18 -3 11 -1 11 7 -1 8 -11 11
-12 11 -2 0 7 5 10 11 6 7 -4 10 -1 7 7 -3 8 -11 13 -17 12 -6 -2 -11 6 -11
18 0 13 4 18 12 13 6 -4 9 -3 6 2 -3 5 -13 35 -23 66 -9 31 -23 59 -30 61 -18
7 -39 -9 -30 -23 6 -9 9 -9 15 0 5 9 9 8 13 -2 3 -8 -2 -14 -13 -15 -26 -2
-35 29 -14 44 9 7 21 10 26 7 20 -13 -26 61 -56 89 -17 16 -25 27 -19 23 9 -5
11 -2 7 8 -9 23 -45 1 -37 -22 7 -18 5 -17 -17 12 -8 11 -10 17 -4 13 7 -4 17
0 24 8 12 14 7 19 -13 16 -5 -1 -6 3 -2 9 3 6 12 8 18 4 7 -3 1 4 -12 16 -13
11 -30 19 -37 16 -15 -6 -48 40 -39 54 4 6 -1 13 -10 16 -14 6 -14 8 2 20 17
12 16 13 -4 9 -13 -2 -23 0 -23 6 0 5 8 9 17 9 13 0 14 3 5 12 -7 7 -12 20
-12 30 0 10 -4 18 -9 18 -4 0 -6 -11 -3 -25 2 -14 0 -25 -5 -25 -11 0 -10 36
1 67 10 29 -1 48 -19 33 -16 -13 -28 -53 -13 -44 6 4 2 -5 -7 -20 -10 -14 -22
-26 -27 -26 -5 0 -6 -5 -3 -11 4 -6 1 -10 -6 -8 -34 4 -70 -2 -64 -11 3 -5 1
-10 -4 -10 -6 0 -11 5 -11 11 0 5 -5 7 -11 3 -7 -4 -6 -12 6 -23 15 -15 17
-15 32 4 15 20 15 20 10 -2 -4 -16 -1 -20 11 -16 10 4 13 2 8 -5 -8 -14 37
-27 56 -16 7 4 10 4 6 -1 -4 -4 0 -14 10 -22 13 -10 14 -13 2 -11 -8 2 -14 -2
-13 -8 1 -8 -6 -10 -19 -6 -21 5 -21 6 -2 14 13 6 10 7 -14 3 -18 -2 -31 -1
-28 3 2 4 -7 8 -20 8 -25 2 -25 2 -4 -16 20 -17 20 -17 -6 -17 -19 0 -23 2
-13 9 9 6 2 7 -20 2 -28 -5 -33 -4 -28 9 3 8 -3 23 -14 33 -10 9 -19 14 -19 9
0 -4 -7 -2 -15 5 -12 10 -18 10 -30 0 -9 -8 -15 -8 -15 -2 0 6 5 12 12 14 6 2
8 9 4 16 -3 6 -13 9 -21 6 -8 -4 -13 -9 -10 -13 2 -4 -2 -8 -9 -8 -15 0 -15
21 -1 34 4 4 5 2 0 -6 -5 -10 -4 -12 4 -7 6 4 9 12 5 17 -3 5 -10 7 -15 4 -8
-5 -13 10 -6 18 1 1 -9 14 -23 29 -23 24 -26 24 -43 9 -18 -15 -21 -13 -48 19
-15 19 -29 39 -29 43 0 5 -4 5 -10 2 -6 -4 -7 1 -3 11 5 15 7 15 16 -1 19 -35
40 -53 56 -48 14 4 14 3 1 -6 -8 -5 -11 -13 -7 -17 4 -4 13 -2 20 5 9 10 3 20
-33 51 l-45 39 -17 -20 c-10 -12 -18 -16 -18 -11 0 6 5 14 10 17 18 11 11 25
-12 25 -16 0 -19 -3 -10 -9 10 -6 10 -10 -2 -20 -11 -9 -16 -9 -22 0 -4 8 -3
9 4 5 15 -9 16 6 1 21 -8 8 -7 13 2 18 8 5 10 4 5 -3 -5 -8 -1 -10 9 -5 13 4
14 8 4 14 -7 4 -17 5 -21 3 -4 -3 -8 -1 -8 5 0 6 -7 7 -17 4 -10 -4 -14 -2
-10 4 8 12 -20 26 -34 17 -5 -3 -9 0 -9 6 0 8 -9 10 -24 6 -13 -3 -26 -2 -28
4 -2 5 -9 6 -17 1z m994 -24 c12 -10 14 -16 7 -21 -7 -4 -12 -2 -12 4 0 6 -4
9 -9 6 -5 -4 -17 -3 -26 0 -13 5 -14 8 -3 15 18 12 21 11 43 -4z m-15 -31 c0
-2 -7 -7 -16 -10 -8 -3 -12 -2 -9 4 6 10 25 14 25 6z m-1110 -26 c0 -5 -5 -10
-11 -10 -5 0 -7 5 -4 10 3 6 8 10 11 10 2 0 4 -4 4 -10z m-36 -29 c-2 -3 -12
3 -22 13 -16 17 -16 18 5 5 12 -7 20 -15 17 -18z m61 10 c-3 -6 -11 -11 -16
-11 -5 0 -4 6 3 14 14 16 24 13 13 -3z m1075 9 c0 -5 -7 -7 -15 -4 -8 4 -15 8
-15 10 0 2 7 4 15 4 8 0 15 -4 15 -10z m-297 -55 c-3 -9 -8 -14 -10 -11 -3 3
-2 9 2 15 9 16 15 13 8 -4z m-329 -93 c3 -22 0 -29 -10 -28 -8 1 -14 6 -13 12
0 5 5 8 10 7 10 -3 12 11 2 20 -3 4 -13 1 -22 -5 -10 -8 -9 -4 3 10 23 26 25
25 30 -16z m497 1 c-12 -20 -14 -14 -5 12 4 9 9 14 11 11 3 -2 0 -13 -6 -23z
m-191 3 c0 -3 -4 -8 -10 -11 -5 -3 -10 -1 -10 4 0 6 5 11 10 11 6 0 10 -2 10
-4z m20 -26 c0 -5 -5 -10 -11 -10 -5 0 -7 5 -4 10 3 6 8 10 11 10 2 0 4 -4 4
-10z m-56 -16 c3 -8 10 -12 16 -9 5 3 10 4 10 1 0 -15 -20 -13 -35 4 -10 11
-13 20 -8 20 6 0 14 -7 17 -16z m76 -19 c0 -12 -19 -12 -23 0 -4 9 -1 12 9 8
7 -3 14 -7 14 -8z m-809 -18 c-10 -9 -11 -8 -5 6 3 10 9 15 12 12 3 -3 0 -11
-7 -18z m224 3 c3 -6 -1 -7 -9 -4 -18 7 -21 14 -7 14 6 0 13 -4 16 -10z m816
-17 c-12 -20 -14 -14 -5 12 4 9 9 14 11 11 3 -2 0 -13 -6 -23z m-211 13 c0 -2
-7 -9 -15 -16 -13 -11 -14 -10 -9 4 5 14 24 23 24 12z m-460 -135 c0 10 3 10
12 1 9 -9 15 -9 26 0 12 10 23 2 63 -42 36 -41 51 -52 57 -42 7 11 11 10 16
-3 5 -15 9 -15 24 -4 15 13 16 12 3 -3 -7 -10 -17 -16 -21 -13 -14 9 -18 -19
-5 -45 6 -14 11 -29 10 -35 -3 -21 -18 -45 -27 -45 -5 0 -6 5 -2 11 4 7 1 10
-7 7 -8 -3 -13 -11 -11 -17 1 -7 -2 -10 -8 -6 -6 3 -7 11 -4 17 3 5 -8 25 -26
43 -25 26 -39 33 -61 30 -16 -2 -29 0 -29 5 0 15 18 21 23 8 3 -10 8 -10 18 1
8 8 9 11 2 7 -16 -9 -25 8 -27 55 -2 28 2 39 11 39 8 0 11 5 8 10 -5 8 -11 8
-20 0 -9 -7 -18 -6 -32 7 -10 10 -13 14 -6 9 9 -5 13 -4 13 5z m95 0 c-3 -5
-1 -12 5 -16 5 -3 15 -16 21 -28 7 -15 2 -12 -14 8 -22 26 -26 45 -11 45 3 0
3 -4 -1 -9z m-107 -46 c-3 -3 -9 2 -12 12 -6 14 -5 15 5 6 7 -7 10 -15 7 -18z
m662 -35 c0 -4 -6 -7 -14 -7 -8 0 -12 6 -8 15 4 11 1 14 -11 9 -11 -4 -14 -2
-10 9 5 13 8 13 24 -2 11 -9 19 -20 19 -24z m-630 9 c0 -4 -7 -9 -15 -13 -8
-3 -15 -13 -14 -23 0 -11 3 -13 6 -5 2 6 9 12 14 12 5 0 2 -11 -7 -26 -21 -31
-39 -18 -25 18 6 16 6 29 0 35 -5 5 1 9 16 9 14 0 25 -3 25 -7z m181 -57 c-7
-13 -6 -23 2 -32 10 -12 9 -12 -5 -1 -14 10 -15 18 -7 32 5 10 12 19 15 19 2
0 0 -8 -5 -18z m-821 -2 c0 -5 -5 -10 -11 -10 -5 0 -7 5 -4 10 3 6 8 10 11 10
2 0 4 -4 4 -10z m731 -78 c-6 -2 -9 -7 -7 -11 3 -4 -1 -8 -9 -8 -11 0 -12 4
-4 13 11 14 4 34 -12 34 -6 0 -8 -4 -4 -9 3 -5 1 -12 -4 -15 -5 -4 -13 -1 -17
5 -3 6 0 15 7 20 11 7 11 9 1 9 -7 0 -10 4 -7 10 3 5 19 -3 36 -18 17 -14 26
-28 20 -30z m-914 42 c-3 -3 -12 -4 -19 -1 -8 3 -5 6 6 6 11 1 17 -2 13 -5z
m1229 -7 c4 -4 2 -7 -6 -7 -10 0 -10 -3 0 -15 7 -8 17 -12 23 -8 6 4 7 1 3 -6
-6 -10 -12 -9 -24 2 -31 26 -49 32 -29 10 9 -11 17 -28 17 -38 0 -15 3 -16 12
-7 7 7 16 12 22 12 5 0 1 -7 -10 -16 -19 -15 -19 -16 1 -10 19 6 19 5 -1 -12
-20 -17 -20 -20 -5 -30 13 -10 11 -10 -7 -2 -19 9 -21 14 -11 26 6 8 8 14 5
14 -13 0 -51 -23 -64 -39 -7 -9 -11 -11 -10 -6 2 6 -1 11 -7 12 -5 0 -9 -3 -7
-9 5 -17 -18 2 -28 25 -10 20 -10 20 3 5 8 -10 17 -15 21 -11 3 3 -1 14 -9 23
-9 9 -13 28 -11 41 3 13 5 27 5 30 2 13 28 17 42 7 11 -8 11 -9 -3 -5 -9 3
-22 -2 -30 -10 -11 -15 -10 -16 7 -10 17 6 18 5 5 -6 -17 -14 -26 -42 -10 -32
5 3 10 -1 10 -9 0 -21 20 -31 33 -16 9 10 9 11 0 6 -7 -4 -17 3 -23 15 -10 17
-8 25 9 43 15 16 18 25 10 33 -8 8 -1 10 24 9 20 0 39 -4 43 -9z m-1271 -16
c-3 -5 -1 -12 5 -16 5 -3 10 -11 10 -17 0 -7 -6 -6 -15 2 -12 10 -15 10 -16
-1 0 -10 -2 -11 -6 -1 -2 6 -10 10 -16 6 -7 -3 -1 4 12 15 25 22 36 27 26 12z
m1052 -13 c-3 -8 -6 -5 -6 6 -1 11 2 17 5 13 3 -3 4 -12 1 -19z m-1010 6 c-3
-3 -12 -4 -19 -1 -8 3 -5 6 6 6 11 1 17 -2 13 -5z m998 -24 c3 -5 1 -10 -4
-10 -6 0 -11 5 -11 10 0 6 2 10 4 10 3 0 8 -4 11 -10z m-474 -33 c-10 -9 -11
-8 -5 6 3 10 9 15 12 12 3 -3 0 -11 -7 -18z m-64 -49 c-3 -8 -6 -5 -6 6 -1 11
2 17 5 13 3 -3 4 -12 1 -19z m60 -10 c-3 -7 -5 -2 -5 12 0 14 2 19 5 13 2 -7
2 -19 0 -25z m-462 -18 c11 -17 -9 -40 -25 -30 -13 8 -12 10 3 10 20 0 23 16
5 23 -10 4 -10 6 -1 6 6 1 15 -3 18 -9z m469 -56 c4 -9 2 -12 -5 -8 -8 4 -9
-1 -5 -17 6 -20 5 -21 -4 -6 -6 9 -8 22 -5 27 3 6 1 10 -4 10 -6 0 -11 4 -11
10 0 14 27 1 34 -16z m1004 -4 c-12 -8 -16 -21 -13 -49 3 -30 -1 -41 -13 -46
-13 -5 -14 -4 -5 6 9 9 9 17 2 32 -8 14 -8 18 0 13 6 -4 11 -4 11 -1 0 4 -5
16 -11 27 -7 13 -7 18 -1 14 6 -3 13 -2 17 4 3 5 12 10 18 10 7 0 4 -5 -5 -10z
m-1573 -10 c-3 -5 -12 -10 -18 -10 -7 0 -6 4 3 10 19 12 23 12 15 0z m440 -19
c-6 -5 -25 10 -25 20 0 5 6 4 14 -3 8 -7 12 -15 11 -17z m92 -13 c-3 -8 -6 -5
-6 6 -1 11 2 17 5 13 3 -3 4 -12 1 -19z m-47 8 c0 -3 -4 -8 -10 -11 -5 -3 -10
-1 -10 4 0 6 5 11 10 11 6 0 10 -2 10 -4z m77 -91 c14 -27 14 -29 0 -15 -9 8
-18 29 -21 45 -4 17 -3 23 0 15 4 -8 13 -28 21 -45z m-315 31 c7 4 8 2 4 -5
-4 -6 -11 -9 -16 -6 -13 8 -41 -6 -34 -17 4 -6 10 -5 15 3 6 11 13 8 33 -10
14 -13 23 -27 20 -32 -2 -4 6 -18 18 -30 13 -12 17 -19 11 -15 -7 4 -13 2 -13
-3 0 -6 6 -11 13 -11 8 0 7 -4 -3 -10 -8 -5 -10 -10 -5 -10 11 0 37 -51 30
-58 -2 -3 -10 7 -16 22 -17 37 -26 32 -33 -19 -4 -24 -11 -47 -16 -50 -5 -3
-6 -13 -3 -23 6 -16 6 -16 -11 0 -9 10 -15 22 -11 27 3 5 0 13 -6 17 -8 5 -9
3 -4 -5 6 -10 3 -11 -12 -2 -11 6 -22 8 -25 6 -3 -3 -5 2 -5 10 0 10 4 12 12
5 14 -12 45 -3 45 12 0 5 -9 6 -20 3 -12 -4 -20 -2 -20 5 0 6 5 8 10 5 6 -3
10 -1 10 4 0 6 -5 11 -12 11 -6 0 -8 3 -5 6 4 4 13 1 21 -5 12 -10 14 -9 9 8
-3 12 -10 18 -16 14 -5 -3 -7 -1 -3 5 3 6 2 13 -3 17 -6 3 -8 12 -5 19 3 7 -1
16 -9 19 -14 5 -16 34 -4 54 4 6 3 14 -3 18 -15 9 -2 25 14 19 8 -3 18 0 22 7
6 10 9 10 12 1 2 -7 9 -9 14 -6z m540 -8 c-7 -7 -12 -8 -12 -2 0 14 12 26 19
19 2 -3 -1 -11 -7 -17z m128 -2 c8 -3 3 -4 -12 -1 -16 3 -28 0 -31 -8 -3 -6
-4 -2 -4 10 1 16 5 19 17 14 8 -5 22 -11 30 -15z m-165 -39 c-4 -6 0 -4 8 5
17 21 39 5 29 -21 -5 -13 -3 -14 9 -4 13 10 16 10 16 -2 0 -8 -6 -15 -14 -15
-17 0 -17 -50 0 -51 10 0 10 -2 0 -6 -7 -2 -14 -21 -14 -41 -1 -20 -4 -28 -6
-18 -4 15 -7 16 -15 5 -7 -10 -7 -7 -3 9 4 14 0 37 -10 58 -9 19 -13 39 -10
44 3 6 1 10 -5 10 -8 0 -7 6 1 21 8 15 8 24 0 32 -6 6 -11 16 -11 21 0 6 7 0
16 -12 8 -12 12 -28 9 -35z m-278 11 c-3 -7 -5 -2 -5 12 0 14 2 19 5 13 2 -7
2 -19 0 -25z m-507 18 c0 -2 -7 -7 -16 -10 -8 -3 -12 -2 -9 4 6 10 25 14 25 6z
m47 -13 c-4 -3 -1 -13 6 -21 8 -11 9 -14 0 -9 -7 4 -16 0 -21 -9 -7 -12 -11
-13 -17 -5 -6 11 20 51 33 51 3 0 2 -3 -1 -7z m431 -7 c-7 -8 -15 -12 -17 -11
-5 6 10 25 20 25 5 0 4 -6 -3 -14z m-138 -6 c0 -5 -2 -10 -4 -10 -3 0 -8 5
-11 10 -3 6 -1 10 4 10 6 0 11 -4 11 -10z m845 1 c-3 -5 -1 -12 5 -16 5 -3 10
-11 10 -16 0 -6 -4 -7 -10 -4 -15 9 -12 -2 8 -32 9 -15 11 -24 5 -20 -8 5 -13
3 -13 -5 -1 -9 -3 -9 -9 2 -5 8 -7 33 -6 55 4 46 3 45 11 45 3 0 3 -4 -1 -9z
m-604 -34 c-10 -9 -11 -8 -5 6 3 10 9 15 12 12 3 -3 0 -11 -7 -18z m-222 -41
c-9 -8 -10 -7 -6 6 3 10 2 20 -4 23 -5 4 -6 11 -3 17 5 7 11 2 16 -12 6 -15 5
-27 -3 -34z m-319 -17 c0 -4 -9 -7 -19 -6 -11 0 -18 4 -16 7 6 9 35 8 35 -1z
m347 -5 c-3 -3 -12 -4 -19 -1 -8 3 -5 6 6 6 11 1 17 -2 13 -5z m1218 -53 c-2
-2 -11 3 -19 12 -8 8 -12 17 -9 21 3 3 12 -2 19 -12 7 -9 11 -19 9 -21z m-308
-13 c-3 -8 -6 -5 -6 6 -1 11 2 17 5 13 3 -3 4 -12 1 -19z m-100 -30 c1 -38 0
-40 -6 -13 -6 26 -4 55 3 55 2 0 3 -19 3 -42z m413 16 c0 -2 -9 0 -20 6 -11 6
-20 13 -20 16 0 2 9 0 20 -6 11 -6 20 -13 20 -16z m-556 -10 c13 -5 14 -9 5
-20 -9 -11 -15 -11 -25 -3 -8 6 -11 15 -8 20 6 11 8 11 28 3z m76 0 c0 -8 -19
-13 -24 -6 -3 5 1 9 9 9 8 0 15 -2 15 -3z m36 -6 c4 -7 3 -8 -4 -4 -7 4 -12 2
-12 -3 0 -6 -5 -11 -11 -11 -8 0 -8 5 1 15 15 18 17 18 26 3z m-928 -49 c9
-13 9 -16 -3 -16 -8 0 -12 4 -9 9 3 4 0 8 -6 8 -6 0 -8 5 -5 11 4 6 8 9 9 7 1
-2 7 -10 14 -19z m1009 -26 c0 -9 -4 -10 -14 -2 -7 6 -13 12 -13 14 0 1 6 2
13 2 8 0 14 -6 14 -14z m-1090 -8 c0 -8 -5 -11 -10 -8 -6 4 -8 0 -5 -9 4 -8 2
-21 -2 -29 -7 -10 -9 -7 -8 11 1 14 6 31 11 38 12 15 14 15 14 -3z m143 9 c0
-8 -19 -13 -24 -6 -3 5 1 9 9 9 8 0 15 -2 15 -3z m67 -20 c-3 -3 -12 -4 -19
-1 -8 3 -5 6 6 6 11 1 17 -2 13 -5z m-100 -160 c-3 -3 -12 -4 -19 -1 -8 3 -5
6 6 6 11 1 17 -2 13 -5z m54 -4 c6 0 7 -4 4 -10 -3 -5 0 -10 8 -10 7 0 14 -7
14 -15 0 -10 -4 -12 -13 -4 -8 7 -14 6 -18 -3 -3 -7 -4 -4 -3 7 2 16 -3 20
-23 18 -17 -1 -19 0 -6 4 15 4 16 7 5 15 -11 8 -10 9 4 4 10 -3 23 -6 28 -6z
m-314 -65 c0 -8 -4 -12 -9 -9 -5 3 -6 10 -3 15 9 13 12 11 12 -6z m36 -5 c3
-11 1 -18 -4 -14 -12 7 -11 -3 3 -29 11 -21 10 -21 -8 -7 -10 8 -20 15 -22 16
-3 2 20 54 23 54 2 0 5 -9 8 -20z m-16 -74 c-2 -6 -9 0 -17 13 l-12 24 -15
-24 c-10 -16 -12 -17 -7 -4 4 11 7 27 8 37 0 13 5 11 24 -9 12 -14 21 -30 19
-37z m259 -173 c-3 -8 -6 -17 -6 -19 0 -3 -4 -3 -9 0 -5 3 -8 -5 -8 -19 0 -14
4 -22 10 -18 5 3 7 2 4 -4 -4 -6 -2 -25 3 -43 5 -18 7 -30 3 -27 -3 4 -12 -1
-19 -11 -12 -16 -13 -16 -31 1 -11 9 -22 15 -25 11 -3 -3 -8 13 -10 36 -2 23
1 44 6 47 5 3 6 1 2 -5 -4 -7 -2 -12 3 -12 19 0 12 19 -11 31 -22 12 -22 12
-3 19 11 4 24 4 30 -1 13 -12 28 -11 20 1 -10 16 14 40 31 33 8 -3 13 -12 10
-20z m-139 -75 c-3 -8 -6 -5 -6 6 -1 11 2 17 5 13 3 -3 4 -12 1 -19z m35 -7
c2 -17 1 -28 -4 -25 -8 5 -12 54 -4 54 2 0 6 -13 8 -29z m53 -81 c3 -5 2 -10
-4 -10 -5 0 -13 5 -16 10 -3 6 -2 10 4 10 5 0 13 -4 16 -10z m-181 -62 c-3 -4
-9 -8 -15 -8 -5 0 -9 4 -9 8 0 5 7 9 15 9 8 0 12 -4 9 -9z m224 -202 c38 -64
41 -108 12 -184 -11 -29 -20 -67 -20 -85 0 -17 -4 -38 -8 -45 -5 -7 -8 36 -7
95 2 112 -16 279 -27 253 -5 -12 -7 -12 -7 3 -2 33 25 16 57 -37z m127 -247
c20 -39 31 -68 25 -64 -10 6 -70 118 -70 130 0 17 14 -3 45 -66z m96 -151 c11
-21 11 -22 -4 -9 -10 7 -17 17 -17 22 0 15 9 10 21 -13z"/>
<path d="M2440 4827 c0 -2 15 -16 33 -33 l32 -29 -29 33 c-28 30 -36 37 -36
29z"/>
<path d="M1746 4324 c9 -37 12 -41 20 -21 3 9 -1 24 -11 33 -15 15 -15 14 -9
-12z"/>
<path d="M1746 4243 c-6 -14 -5 -15 5 -6 7 7 10 15 7 18 -3 3 -9 -2 -12 -12z"/>
<path d="M2505 4240 c3 -5 8 -10 11 -10 2 0 4 5 4 10 0 6 -5 10 -11 10 -5 0
-7 -4 -4 -10z"/>
<path d="M1725 3679 c-9 -14 -2 -20 14 -10 8 6 9 11 3 15 -6 3 -14 1 -17 -5z"/>
<path d="M1730 3217 c0 -17 5 -27 15 -27 19 0 19 9 0 34 -14 19 -15 19 -15 -7z"/>
<path d="M1762 3150 c0 -19 2 -27 5 -17 2 9 2 25 0 35 -3 9 -5 1 -5 -18z"/>
<path d="M3105 5340 c-10 -11 -16 -22 -14 -24 2 -2 12 7 22 20 22 29 17 32 -8
4z"/>
<path d="M1933 5244 c20 -22 37 -44 37 -49 0 -10 70 -60 74 -53 1 2 -32 34
-74 73 -41 38 -58 52 -37 29z"/>
<path d="M2598 5193 c12 -2 32 -2 45 0 12 2 2 4 -23 4 -25 0 -35 -2 -22 -4z"/>
<path d="M4729 5183 c-13 -16 -12 -17 4 -4 16 13 21 21 13 21 -2 0 -10 -8 -17
-17z"/>
<path d="M1951 5154 c0 -11 3 -14 6 -6 3 7 2 16 -1 19 -3 4 -6 -2 -5 -13z"/>
<path d="M2550 5162 c0 -12 79 -47 87 -39 3 4 0 7 -8 7 -8 0 -25 9 -39 20 -27
21 -40 25 -40 12z"/>
<path d="M2827 5137 c4 -6 8 -14 8 -17 4 -26 18 -46 35 -46 19 0 19 1 -3 21
-13 11 -22 25 -20 31 2 6 -3 14 -12 18 -11 4 -14 2 -8 -7z"/>
<path d="M2975 5140 c-3 -5 -1 -10 4 -10 6 0 11 5 11 10 0 6 -2 10 -4 10 -3 0
-8 -4 -11 -10z"/>
<path d="M4708 5128 c-10 -10 -15 -18 -12 -18 3 0 -12 -21 -34 -47 -21 -27
-37 -54 -34 -62 3 -8 0 -11 -7 -7 -17 11 -13 -5 6 -26 13 -14 14 -21 5 -30 -9
-9 -15 -9 -24 1 -11 10 -10 11 5 6 9 -4 17 -3 17 3 0 24 -27 17 -43 -11 -12
-20 -13 -27 -4 -21 7 5 5 2 -5 -8 -10 -9 -19 -25 -21 -37 -2 -11 -6 -23 -10
-27 -3 -4 -1 -16 5 -28 10 -18 9 -19 -4 -9 -12 10 -15 10 -15 0 -1 -6 -5 -25
-11 -42 -5 -16 -8 -40 -7 -52 1 -12 -2 -20 -7 -17 -4 3 -8 1 -8 -5 0 -5 4 -12
9 -15 4 -3 6 -17 3 -32 -3 -19 -7 -22 -13 -12 -5 7 -9 9 -10 3 -3 -16 -10 -78
-12 -97 -1 -9 -5 -14 -10 -11 -4 2 -5 -8 -2 -24 5 -23 4 -25 -5 -13 -10 13
-11 12 -6 -3 3 -10 6 -24 6 -30 0 -8 4 -7 9 2 7 10 9 7 8 -12 -2 -27 -14 -26
-25 4 -6 15 -11 10 -23 -26 -9 -25 -13 -45 -8 -45 5 0 9 5 9 10 0 6 5 10 10
10 20 0 9 -20 -14 -26 -14 -3 -27 -12 -30 -20 -4 -10 -2 -13 7 -8 6 4 4 -2 -5
-13 -10 -11 -18 -24 -18 -29 0 -5 4 -3 9 5 6 9 9 5 9 -14 0 -20 -3 -24 -10
-14 -7 10 -8 8 -5 -8 3 -12 -1 -27 -9 -34 -8 -6 -14 -8 -14 -4 0 4 -6 2 -13
-4 -8 -6 -18 -7 -22 -3 -5 4 -4 0 1 -8 12 -21 14 -41 3 -34 -5 3 -7 10 -4 15
12 18 -5 8 -50 -31 -25 -22 -51 -40 -56 -40 -6 0 -7 -5 -3 -12 4 -7 3 -8 -5
-4 -8 6 -9 12 -2 20 15 18 1 28 -18 13 -14 -11 -14 -10 -2 6 15 20 2 23 -19 5
-12 -11 -12 -10 -1 4 11 15 50 22 49 8 -2 -18 4 -20 18 -6 8 9 12 21 8 28 -5
8 -2 9 11 4 18 -6 18 -6 -1 15 -11 13 -13 19 -4 14 30 -18 45 -14 20 6 -14 10
-18 17 -8 13 9 -3 18 0 21 8 2 7 3 5 1 -5 -1 -10 3 -16 9 -14 7 2 11 15 9 28
-1 17 0 20 7 10 7 -11 13 -7 25 17 12 23 13 31 4 28 -7 -1 -10 -1 -5 1 4 3 5
9 2 14 -4 5 1 6 9 3 9 -3 16 -2 16 4 0 6 -6 13 -12 15 -8 3 -6 6 4 6 18 1 44
38 34 48 -3 4 -1 13 6 20 9 11 9 17 -3 25 -11 8 -11 9 3 5 17 -6 33 29 17 39
-14 8 -11 26 4 18 6 -4 9 -4 5 1 -4 4 -3 14 4 22 8 10 8 17 -1 26 -10 9 -11 8
-5 -7 6 -15 4 -17 -6 -11 -9 5 -11 4 -6 -3 4 -7 2 -12 -3 -12 -6 0 -11 -7 -11
-17 0 -9 -3 -13 -7 -10 -3 4 -16 0 -29 -8 -19 -12 -24 -12 -34 0 -7 8 -16 12
-21 9 -5 -2 -2 13 6 35 7 21 11 41 9 44 -3 2 0 17 6 32 9 23 8 30 -5 37 -20
12 -19 28 3 28 14 0 15 -2 2 -10 -13 -8 -12 -10 3 -10 11 0 17 5 14 13 -2 6 0
20 5 31 15 28 -45 -20 -113 -91 -46 -48 -112 -143 -114 -163 -1 -3 -11 -24
-23 -46 -11 -23 -18 -44 -15 -48 4 -3 1 -6 -5 -6 -7 0 -12 -5 -12 -11 0 -5 4
-8 8 -5 5 3 9 -1 9 -8 0 -8 -6 -12 -13 -9 -9 3 -12 -2 -9 -16 2 -13 -1 -21 -9
-21 -12 0 -31 -53 -27 -74 1 -5 -2 -12 -8 -15 -7 -5 -61 -175 -61 -195 0 -4
61 -6 135 -6 l135 0 0 -383 c0 -358 1 -388 20 -442 11 -32 20 -60 20 -62 0 -2
-9 -1 -20 2 -20 6 -20 2 -20 -478 0 -460 1 -485 20 -523 16 -33 24 -38 22 -13
-1 3 6 6 13 6 11 0 12 -4 3 -14 -8 -10 -7 -17 8 -29 10 -9 13 -12 5 -8 -11 5
-13 3 -8 -10 4 -10 3 -15 -3 -11 -6 4 -7 -1 -3 -11 6 -15 8 -15 24 5 17 21 18
21 16 2 -1 -11 -3 -18 -6 -16 -2 3 -10 0 -17 -6 -15 -12 -42 0 -65 27 -8 10
-9 15 -3 11 17 -10 24 16 10 35 -13 17 -44 8 -33 -9 3 -5 0 -10 -8 -10 -10 0
-11 5 -5 17 9 17 -19 49 -144 159 -48 44 -49 44 -110 38 -33 -3 -76 -11 -94
-18 -33 -11 -86 -75 -76 -91 3 -4 25 -8 48 -8 65 0 124 -25 187 -80 56 -49 77
-62 63 -38 -4 7 -3 8 4 4 6 -4 9 -13 6 -20 -3 -7 2 -16 11 -20 9 -3 13 -11 9
-17 -9 -15 13 -3 42 23 16 15 21 15 21 4 0 -8 -4 -13 -9 -10 -10 6 -11 -10 -1
-20 4 -4 8 -31 9 -59 0 -28 5 -52 12 -55 6 -2 9 -9 6 -16 -3 -7 4 -24 15 -37
11 -13 20 -18 21 -11 0 6 5 12 10 12 7 0 7 -7 -1 -21 -8 -16 -8 -24 2 -33 9
-8 11 -7 7 4 -3 8 2 22 10 30 14 13 15 13 10 0 -17 -47 -18 -59 -3 -74 12 -12
13 -16 3 -16 -10 0 -10 -2 -1 -8 12 -8 14 -16 13 -91 -1 -38 4 -50 37 -83 42
-43 54 -47 46 -18 -3 11 -9 18 -13 15 -5 -3 -13 8 -18 25 -13 37 0 48 18 15 7
-14 18 -25 23 -25 5 0 2 12 -7 28 l-17 27 24 -29 c14 -15 27 -24 29 -20 3 5 3
3 2 -4 -2 -8 5 -11 19 -9 12 2 16 2 9 0 -8 -3 -11 -11 -8 -19 3 -9 1 -12 -4
-9 -6 3 -10 1 -10 -5 0 -6 11 -15 25 -20 14 -5 25 -15 25 -21 0 -21 31 -48 48
-42 9 4 13 2 9 -4 -4 -6 -1 -16 7 -22 11 -9 15 -9 19 1 3 8 6 6 6 -6 1 -15 4
-16 15 -7 11 9 16 9 22 0 4 -8 3 -9 -4 -5 -7 4 -12 3 -12 -2 0 -6 7 -13 16
-16 21 -8 26 -8 21 2 -3 4 2 13 9 20 13 12 14 9 9 -15 l-6 -28 16 28 c13 23
35 30 35 11 0 -3 -5 -2 -12 2 -8 5 -9 2 -5 -10 5 -12 3 -15 -6 -10 -6 4 -8 3
-4 -1 9 -10 25 -14 93 -19 l51 -5 2 149 c2 142 1 149 -18 155 -12 3 -26 3 -33
-1 -9 -6 -9 -3 1 9 11 14 11 18 -3 23 -9 3 -14 10 -11 14 3 4 -2 13 -10 20
-15 13 -11 34 14 65 16 19 16 19 -11 2 -29 -18 -37 -14 -15 6 15 16 43 15 40
-1 -2 -7 1 -12 6 -12 5 0 16 -3 24 -6 13 -5 15 29 17 262 1 236 -1 266 -15
261 -8 -4 -15 -2 -15 3 0 15 -40 12 -40 -2 0 -7 -5 -5 -11 4 -12 22 -23 23
-43 2 -9 -9 -16 -11 -16 -4 0 7 -5 8 -12 3 -16 -10 -58 -11 -52 -2 2 4 12 8
22 8 9 0 26 2 37 5 11 2 22 5 25 5 3 1 -2 5 -10 11 -9 6 -20 5 -29 -3 -12 -9
-13 -9 -7 1 9 16 -6 16 -24 0 -12 -11 -12 -10 -2 3 9 12 5 21 -21 46 -18 16
-42 33 -55 37 -12 4 -20 11 -17 15 2 5 -10 30 -27 57 -55 86 -69 145 -69 275
1 116 11 218 32 307 15 64 26 182 17 176 -5 -3 -17 -23 -29 -45 -11 -22 -24
-37 -28 -34 -5 2 -14 -2 -21 -10 -7 -8 -22 -16 -34 -16 -18 -1 -18 -2 -3 -6
10 -3 27 3 38 13 10 9 19 12 19 6 0 -16 -33 -32 -65 -32 l-26 0 4 203 5 202
70 201 c55 156 68 204 59 214 -9 9 -9 11 0 6 6 -3 20 9 32 30 24 40 27 58 6
30 -8 -11 -15 -15 -15 -8 0 7 9 17 20 24 11 7 20 22 21 33 0 14 2 16 6 5 3 -8
24 -33 47 -54 22 -21 34 -35 26 -31 -16 9 -18 12 30 -48 8 -11 24 -28 35 -39
14 -14 16 -19 5 -16 -10 2 -14 -4 -12 -17 6 -37 24 -85 32 -85 4 0 11 -7 14
-16 5 -14 4 -15 -9 -4 -11 9 -15 9 -15 1 0 -6 7 -14 16 -18 13 -5 13 -7 2 -14
-10 -7 -10 -11 4 -25 15 -15 16 -13 12 27 -2 24 -6 55 -8 69 -2 14 -4 33 -5
43 0 9 -9 17 -18 17 -15 0 -15 2 -4 9 12 7 12 13 3 24 -7 7 -9 17 -5 20 3 4 2
7 -4 7 -6 0 -9 9 -6 20 3 11 0 20 -6 20 -6 0 -10 3 -10 8 3 17 -2 32 -10 32
-6 0 -8 -9 -6 -20 2 -11 0 -18 -5 -15 -5 3 -7 17 -4 30 3 17 -1 27 -11 31 -8
3 -13 10 -10 14 2 4 -4 15 -15 25 -23 21 -25 43 -5 69 8 10 12 23 8 29 -3 6
-1 7 5 3 6 -3 16 2 21 13 8 14 8 21 -2 24 -6 3 2 4 19 3 40 -4 57 -14 50 -32
-3 -8 1 -14 9 -14 8 0 15 -5 15 -11 0 -5 -4 -7 -10 -4 -5 3 -10 1 -10 -4 0 -6
7 -11 16 -11 12 0 15 7 12 25 -3 13 0 26 6 28 8 3 8 8 0 16 -16 17 -4 63 17
68 11 3 19 9 19 14 0 5 -6 6 -14 3 -8 -3 -16 -1 -19 3 -3 5 12 9 34 8 l39 -1
0 91 c0 79 -2 92 -20 103 -21 13 -27 4 -10 -16 5 -7 3 -6 -6 2 -13 11 -14 18
-5 34 9 17 8 23 -6 32 -15 10 -15 11 -1 6 14 -4 15 -2 2 22 -8 17 -10 30 -4
37 6 7 7 15 3 19 -4 4 -1 11 6 15 9 6 10 14 5 22 -13 22 -13 36 2 36 7 0 11
-4 8 -9 -3 -4 1 -8 8 -8 10 0 9 -3 -2 -11 -13 -9 -13 -10 0 -6 13 3 15 43 18
264 l3 261 -23 -1 c-13 0 -31 -9 -40 -19z m-2 -53 c-9 -7 -12 -16 -8 -20 4 -5
1 -5 -6 -1 -7 4 -15 1 -18 -9 -4 -8 -16 -20 -28 -26 -11 -6 -2 7 22 30 23 23
43 49 43 59 1 14 2 13 6 -2 3 -11 -2 -25 -11 -31z m-19 -60 c-23 -22 -33 -18
-12 5 10 11 20 18 23 16 2 -3 -3 -12 -11 -21z m-47 -105 c0 -5 -10 -10 -22 -9
-22 0 -22 1 -3 9 11 5 21 9 23 9 1 1 2 -3 2 -9z m-84 -157 c-3 -4 -6 0 -7 8 0
8 -4 6 -9 -6 -8 -20 -9 -20 -9 1 -1 28 11 38 22 19 5 -9 6 -19 3 -22z m-13
-76 c3 -8 2 -20 -3 -26 -5 -9 -7 -4 -7 13 0 29 2 32 10 13z m-249 -33 c3 -8 2
-12 -4 -9 -6 3 -10 10 -10 16 0 14 7 11 14 -7z m-4 -42 c0 -8 -1 -13 -3 -11
-1 2 -9 12 -16 22 -12 15 -12 17 3 11 9 -3 16 -13 16 -22z m-29 -10 c-6 -2 -8
-9 -4 -15 5 -8 2 -8 -9 0 -8 7 -19 9 -23 5 -5 -4 -5 -1 -1 6 4 7 12 9 18 6 8
-5 9 -1 4 11 -6 16 -4 16 10 4 10 -8 12 -15 5 -17z m406 -74 c-2 -13 -4 -3 -4
22 0 25 2 35 4 23 2 -13 2 -33 0 -45z m-457 37 c-8 -10 -9 -15 -2 -15 6 0 16
8 21 18 6 9 11 12 11 6 0 -6 -9 -19 -20 -29 -11 -10 -20 -13 -20 -7 0 7 -5 12
-10 12 -7 0 -7 -6 0 -20 6 -12 7 -20 1 -20 -17 0 -18 34 -2 52 20 21 38 24 21
3z m487 -7 c-3 -8 -6 -5 -6 6 -1 11 2 17 5 13 3 -3 4 -12 1 -19z m-414 -24
c-7 -20 -10 -18 -15 11 -4 20 -2 23 8 14 7 -6 10 -17 7 -25z m-23 2 c0 -8 -7
-16 -15 -20 -13 -4 -14 -2 -5 14 13 23 20 26 20 6z m-106 -51 c3 -8 1 -14 -3
-12 -5 1 -8 -2 -7 -8 0 -5 4 -9 8 -8 8 3 4 -24 -4 -33 -4 -3 -15 -1 -25 6 -16
9 -15 10 7 4 24 -6 24 -5 8 11 -13 14 -14 21 -5 36 14 23 13 23 21 4z m206
-65 c-7 -14 -7 -20 0 -20 5 0 10 5 10 12 0 6 3 8 6 5 4 -4 1 -14 -6 -22 -12
-14 -15 -14 -22 -1 -9 16 -1 46 13 46 6 0 5 -9 -1 -20z m-259 -27 c-12 -20
-14 -14 -5 12 4 9 9 14 11 11 3 -2 0 -13 -6 -23z m374 -5 c-3 -9 -18 -21 -33
-27 l-27 -12 30 29 c32 32 39 34 30 10z m-195 -53 c0 -8 -4 -15 -10 -15 -5 0
-7 7 -4 15 4 8 8 15 10 15 2 0 4 -7 4 -15z m-223 -61 c-3 -4 0 -13 8 -21 8 -8
15 -19 15 -24 0 -6 -8 -3 -17 7 -17 16 -18 16 -21 1 -2 -9 -7 -17 -12 -17 -4
0 -3 14 3 30 6 17 16 30 21 30 5 0 7 -3 3 -6z m608 -14 c-3 -5 -12 -10 -18
-10 -7 0 -6 4 3 10 19 12 23 12 15 0z m-365 -79 c-14 -27 -13 -36 4 -22 8 7
17 8 20 3 7 -11 -34 -31 -52 -25 -9 4 -6 13 9 34 23 33 35 39 19 10z m20 -61
c0 -5 -5 -10 -11 -10 -5 0 -7 5 -4 10 3 6 8 10 11 10 2 0 4 -4 4 -10z m200
-14 c0 -2 -7 -7 -16 -10 -8 -3 -12 -2 -9 4 6 10 25 14 25 6z m12 -16 l-24 -20
25 -22 c28 -25 45 -68 28 -68 -6 0 -10 3 -10 8 4 27 -5 45 -32 61 l-30 18 28
21 c35 27 46 28 15 2z m-1 -67 c13 -16 12 -17 -3 -4 -17 13 -22 21 -14 21 2 0
10 -8 17 -17z m-147 -58 c-7 -16 -18 -45 -25 -63 -11 -32 -45 -60 -57 -48 -10
10 14 71 49 124 27 41 35 48 40 35 3 -10 0 -31 -7 -48z m71 45 c-15 -16 -45
-23 -45 -10 0 12 20 26 39 26 18 0 19 -2 6 -16z m205 -200 c0 -5 -5 -10 -11
-10 -5 0 -7 5 -4 10 3 6 8 10 11 10 2 0 4 -4 4 -10z m10 -30 c0 -5 -5 -10 -11
-10 -5 0 -7 5 -4 10 3 6 8 10 11 10 2 0 4 -4 4 -10z m-423 -487 c-3 -10 -5 -2
-5 17 0 19 2 27 5 18 2 -10 2 -26 0 -35z m258 -914 c11 -17 -1 -21 -15 -4 -8
9 -8 15 -2 15 6 0 14 -5 17 -11z m175 -99 c0 -5 -2 -10 -4 -10 -3 0 -8 5 -11
10 -3 6 -1 10 4 10 6 0 11 -4 11 -10z m-490 -235 c5 3 11 1 14 -4 4 -5 0 -8
-6 -7 -21 3 -38 16 -38 29 0 7 5 4 11 -6 6 -9 14 -15 19 -12z m-70 -30 c0 -12
-19 -12 -23 0 -4 9 -1 12 9 8 7 -3 14 -7 14 -8z m190 -58 c-8 -9 -9 -7 -4 7 5
13 4 17 -4 12 -13 -8 -17 6 -5 18 4 3 11 -1 16 -10 6 -10 5 -20 -3 -27z m-30
10 c0 -8 -6 -14 -14 -14 -8 0 -12 6 -9 14 3 7 9 13 14 13 5 0 9 -6 9 -13z
m-70 -101 c0 -2 -8 -10 -17 -17 -16 -13 -17 -12 -4 4 13 16 21 21 21 13z m167
-11 c-4 -8 -2 -17 3 -20 6 -4 10 -14 10 -23 0 -12 -4 -10 -13 7 -13 26 -41 42
-32 19 3 -8 0 -15 -7 -15 -8 0 -14 8 -14 18 0 10 3 16 6 14 3 -2 12 0 20 6 22
13 33 11 27 -6z m298 -117 c5 -4 0 -6 -12 -6 -13 1 -19 7 -16 15 3 8 8 10 12
6 3 -4 10 -11 16 -15z m6 -49 c10 -7 9 -8 -6 -6 -21 3 -25 8 -25 30 0 9 3 8 9
-2 5 -7 15 -17 22 -22z m-393 -10 c-3 -8 -7 -3 -11 10 -4 17 -3 21 5 13 5 -5
8 -16 6 -23z m28 -14 c0 -25 -3 -31 -9 -20 -7 13 -2 55 7 55 1 0 2 -16 2 -35z
m403 -11 c2 -2 -3 -4 -13 -4 -9 0 -15 -4 -12 -9 3 -4 -3 -8 -14 -7 -11 0 -20
4 -20 9 0 4 0 11 0 16 0 9 49 5 59 -5z m-398 -39 c5 4 9 4 9 1 0 -3 -9 -10
-20 -16 -16 -9 -18 -8 -14 5 4 8 1 15 -6 15 -6 0 -8 5 -4 11 5 8 10 6 16 -5 5
-9 13 -14 19 -11z m95 -26 c18 -7 18 -8 -2 -8 -21 -1 -35 17 -33 42 0 7 4 3 8
-7 4 -11 16 -23 27 -27z m11 25 c-3 -3 -12 -4 -19 -1 -8 3 -5 6 6 6 11 1 17
-2 13 -5z m-47 -40 c0 -3 -7 -1 -15 6 -8 7 -15 17 -15 22 0 5 7 3 15 -6 8 -8
15 -18 15 -22z m137 -120 c-3 -3 -12 -4 -19 -1 -8 3 -5 6 6 6 11 1 17 -2 13
-5z m38 -14 c3 -6 -1 -7 -9 -4 -21 8 -20 -6 2 -22 15 -12 15 -12 -5 -7 -13 3
-23 10 -23 15 0 6 -12 8 -26 5 -14 -2 -22 -1 -17 3 4 5 19 10 33 13 14 2 28 5
32 6 4 0 10 -3 13 -9z m200 -60 c3 -5 1 -10 -4 -10 -6 0 -11 5 -11 10 0 6 2
10 4 10 3 0 8 -4 11 -10z m-19 -15 c9 -8 13 -15 11 -15 -3 0 -13 -3 -23 -7
-13 -5 -16 -3 -11 10 3 8 1 18 -6 21 -8 3 -8 5 1 5 7 1 20 -6 28 -14z m-46 -5
c0 -5 -8 -10 -17 -10 -15 0 -16 2 -3 10 19 12 20 12 20 0z"/>
<path d="M4346 3935 c-26 -40 -39 -78 -24 -73 11 4 53 98 44 98 -2 0 -11 -11
-20 -25z"/>
<path d="M4670 1640 c-9 -6 -10 -10 -3 -10 6 0 15 5 18 10 8 12 4 12 -15 0z"/>
<path d="M2603 5095 c0 -9 4 -14 9 -13 5 2 10 8 10 13 0 5 -5 11 -10 13 -5 1
-9 -4 -9 -13z"/>
<path d="M3053 5065 c0 -22 2 -30 4 -17 2 12 2 30 0 40 -3 9 -5 -1 -4 -23z"/>
<path d="M1889 5053 l-24 -28 28 24 c25 23 32 31 24 31 -2 0 -14 -12 -28 -27z"/>
<path d="M3103 5043 c-15 -5 -17 -23 -4 -23 5 0 11 7 15 15 3 8 4 15 3 14 -1
0 -8 -3 -14 -6z"/>
<path d="M1605 4850 c-3 -5 -2 -10 4 -10 5 0 13 5 16 10 3 6 2 10 -4 10 -5 0
-13 -4 -16 -10z"/>
<path d="M4224 4648 l-19 -23 23 19 c21 18 27 26 19 26 -2 0 -12 -10 -23 -22z"/>
<path d="M4745 4580 c-3 -6 1 -7 9 -4 18 7 21 14 7 14 -6 0 -13 -4 -16 -10z"/>
<path d="M4746 4485 c-7 -18 0 -35 14 -35 5 0 7 10 5 21 -6 29 -11 33 -19 14z"/>
<path d="M3161 4474 c0 -11 3 -14 6 -6 3 7 2 16 -1 19 -3 4 -6 -2 -5 -13z"/>
<path d="M2140 4406 c0 -2 13 -6 29 -8 17 -2 28 -1 25 4 -5 8 -54 12 -54 4z"/>
<path d="M3122 4390 c0 -14 2 -19 5 -12 2 6 2 18 0 25 -3 6 -5 1 -5 -13z"/>
<path d="M3171 4394 c0 -11 3 -14 6 -6 3 7 2 16 -1 19 -3 4 -6 -2 -5 -13z"/>
<path d="M2341 4384 c0 -11 3 -14 6 -6 3 7 2 16 -1 19 -3 4 -6 -2 -5 -13z"/>
<path d="M1399 4373 c-13 -16 -12 -17 4 -4 16 13 21 21 13 21 -2 0 -10 -8 -17
-17z"/>
<path d="M2444 4318 c-4 -6 -3 -8 4 -4 5 3 13 0 15 -6 3 -8 6 -6 6 5 1 19 -14
23 -25 5z"/>
<path d="M3183 4280 c0 -30 2 -43 4 -27 2 15 2 39 0 55 -2 15 -4 2 -4 -28z"/>
<path d="M2341 4270 c0 -33 1 -34 11 -12 8 17 8 26 0 34 -9 9 -12 4 -11 -22z"/>
<path d="M3123 4292 c-10 -6 -10 -12 2 -28 14 -18 14 -18 15 9 0 30 0 30 -17
19z"/>
<path d="M3571 4254 c0 -11 3 -14 6 -6 3 7 2 16 -1 19 -3 4 -6 -2 -5 -13z"/>
<path d="M4340 4255 c-8 -9 -8 -15 -2 -15 6 0 13 6 15 13 4 9 6 9 6 -1 1 -7 6
-10 11 -7 11 7 4 25 -9 25 -5 0 -14 -7 -21 -15z"/>
<path d="M4745 4240 c3 -5 -6 -12 -20 -16 -14 -3 -25 -10 -25 -16 0 -11 43 1
48 13 2 5 8 7 13 3 5 -3 9 -1 9 4 0 6 -7 13 -16 16 -8 3 -12 2 -9 -4z"/>
<path d="M3573 4185 c0 -27 2 -38 4 -22 2 15 2 37 0 50 -2 12 -4 0 -4 -28z"/>
<path d="M2463 4170 c0 -25 2 -35 4 -22 2 12 2 32 0 45 -2 12 -4 2 -4 -23z"/>
<path d="M3210 4165 c13 -14 26 -25 28 -25 3 0 -5 11 -18 25 -13 14 -26 25
-28 25 -3 0 5 -11 18 -25z"/>
<path d="M4606 4144 c-5 -14 -4 -15 9 -4 17 14 19 20 6 20 -5 0 -12 -7 -15
-16z"/>
<path d="M1710 4140 c-9 -5 -28 -7 -43 -6 -23 3 -25 1 -16 -16 8 -15 14 -16
31 -7 30 16 72 19 80 5 6 -8 8 -8 8 1 0 7 -9 17 -19 23 -23 12 -22 12 -41 0z"/>
<path d="M2660 4125 c13 -14 26 -25 28 -25 3 0 -5 11 -18 25 -13 14 -26 25
-28 25 -3 0 5 -11 18 -25z"/>
<path d="M2391 4104 c0 -11 3 -14 6 -6 3 7 2 16 -1 19 -3 4 -6 -2 -5 -13z"/>
<path d="M4685 4084 c-17 -13 -18 -16 -5 -24 11 -7 11 -10 2 -10 -8 0 -10 -5
-5 -12 4 -7 6 -23 4 -35 -2 -17 3 -23 16 -23 15 0 16 -2 3 -11 -12 -8 -12 -12
-2 -16 10 -4 10 -8 2 -19 -7 -7 -8 -19 -3 -26 4 -7 9 -29 10 -48 4 -62 7 -79
15 -74 4 3 8 1 8 -5 0 -5 -6 -12 -12 -15 -9 -4 -10 -8 -2 -11 6 -3 9 -16 7
-28 -3 -13 2 -29 11 -36 13 -11 14 -5 10 51 -3 37 -12 70 -21 80 -10 11 -12
18 -5 18 13 0 17 42 5 53 -6 7 -13 75 -15 160 -1 26 -2 47 -2 47 -1 0 -10 -7
-21 -16z"/>
<path d="M2053 4050 c0 -25 2 -35 4 -22 2 12 2 32 0 45 -2 12 -4 2 -4 -23z"/>
<path d="M2291 4064 c0 -11 3 -14 6 -6 3 7 2 16 -1 19 -3 4 -6 -2 -5 -13z"/>
<path d="M1960 4052 c0 -5 7 -17 15 -28 15 -19 20 -8 9 20 -6 17 -24 22 -24 8z"/>
<path d="M2381 4034 c0 -11 3 -14 6 -6 3 7 2 16 -1 19 -3 4 -6 -2 -5 -13z"/>
<path d="M2762 4020 c0 -19 2 -27 5 -17 2 9 2 25 0 35 -3 9 -5 1 -5 -18z"/>
<path d="M4651 4034 c0 -11 3 -14 6 -6 3 7 2 16 -1 19 -3 4 -6 -2 -5 -13z"/>
<path d="M1648 4023 c6 -2 18 -2 25 0 6 3 1 5 -13 5 -14 0 -19 -2 -12 -5z"/>
<path d="M3478 4023 c7 -3 16 -2 19 1 4 3 -2 6 -13 5 -11 0 -14 -3 -6 -6z"/>
<path d="M2721 4004 c0 -11 3 -14 6 -6 3 7 2 16 -1 19 -3 4 -6 -2 -5 -13z"/>
<path d="M4496 3982 c-3 -5 1 -9 9 -9 8 0 12 4 9 9 -3 4 -7 8 -9 8 -2 0 -6 -4
-9 -8z"/>
<path d="M2700 3732 l0 -249 -39 -36 c-33 -30 -40 -33 -44 -19 -3 9 -18 49
-33 87 -19 50 -28 97 -33 165 -5 84 -7 92 -19 72 -7 -12 -21 -61 -32 -108 -19
-89 -58 -151 -88 -139 -7 2 -10 0 -7 -5 3 -6 0 -10 -7 -10 -10 0 -14 27 -16
103 -5 165 -19 132 -21 -51 -1 -187 -3 -181 65 -207 l39 -15 -53 5 -53 6 3
-101 3 -102 172 179 172 178 1 248 c0 136 -2 247 -5 247 -3 0 -5 -112 -5 -248z"/>
<path d="M2371 3894 c0 -11 3 -14 6 -6 3 7 2 16 -1 19 -3 4 -6 -2 -5 -13z"/>
<path d="M4763 3855 c0 -27 2 -38 4 -22 2 15 2 37 0 50 -2 12 -4 0 -4 -28z"/>
<path d="M4676 3833 c10 -40 14 -41 14 -5 0 18 -5 32 -10 32 -6 0 -8 -11 -4
-27z"/>
<path d="M3060 3689 c0 -60 4 -109 9 -109 5 0 16 -3 25 -6 14 -5 16 8 16 109
l0 115 -25 0 -25 0 0 -109z"/>
<path d="M2559 3758 c4 -28 6 -29 9 -9 2 13 0 27 -5 32 -6 6 -7 -3 -4 -23z"/>
<path d="M2382 3755 c0 -16 2 -22 5 -12 2 9 2 23 0 30 -3 6 -5 -1 -5 -18z"/>
<path d="M4761 3744 c0 -11 3 -14 6 -6 3 7 2 16 -1 19 -3 4 -6 -2 -5 -13z"/>
<path d="M4702 3710 c0 -14 2 -19 5 -12 2 6 2 18 0 25 -3 6 -5 1 -5 -13z"/>
<path d="M2392 3640 c0 -19 2 -27 5 -17 2 9 2 25 0 35 -3 9 -5 1 -5 -18z"/>
<path d="M4712 3655 c0 -11 4 -31 8 -45 6 -20 8 -21 8 -5 0 11 -4 31 -8 45 -6
20 -8 21 -8 5z"/>
<path d="M4735 3660 c3 -5 11 -10 16 -10 6 0 7 5 4 10 -3 6 -11 10 -16 10 -6
0 -7 -4 -4 -10z"/>
<path d="M2481 3634 c0 -11 3 -14 6 -6 3 7 2 16 -1 19 -3 4 -6 -2 -5 -13z"/>
<path d="M2561 3634 c0 -11 3 -14 6 -6 3 7 2 16 -1 19 -3 4 -6 -2 -5 -13z"/>
<path d="M4670 3630 c0 -5 5 -10 11 -10 5 0 8 -4 4 -9 -3 -5 -1 -12 4 -15 4
-3 9 -17 9 -31 0 -27 8 -42 18 -32 8 8 -26 107 -37 107 -5 0 -9 -4 -9 -10z"/>
<path d="M4743 3625 c0 -9 4 -14 9 -13 5 2 10 8 10 13 0 5 -5 11 -10 13 -5 1
-9 -4 -9 -13z"/>
<path d="M2471 3584 c0 -11 3 -14 6 -6 3 7 2 16 -1 19 -3 4 -6 -2 -5 -13z"/>
<path d="M4750 3586 c0 -8 4 -17 8 -20 4 -2 8 4 8 15 0 10 -4 19 -8 19 -4 0
-8 -6 -8 -14z"/>
<path d="M2444 3538 l-19 -23 23 19 c21 18 27 26 19 26 -2 0 -12 -10 -23 -22z"/>
<path d="M3060 3411 c0 -127 3 -156 20 -196 11 -26 17 -52 13 -57 -3 -7 -1 -8
5 -4 9 5 12 65 12 201 0 199 -1 205 -41 205 -5 0 -9 -65 -9 -149z"/>
<path d="M4710 3509 c0 -5 5 -7 10 -4 6 3 10 8 10 11 0 2 -4 4 -10 4 -5 0 -10
-5 -10 -11z"/>
<path d="M4727 3494 c-10 -10 4 -34 16 -27 6 4 8 0 4 -10 -4 -11 -1 -17 9 -17
13 0 13 4 -1 30 -16 32 -18 33 -28 24z"/>
<path d="M4720 3445 c0 -5 5 -17 10 -25 5 -8 10 -10 10 -5 0 6 -5 17 -10 25
-5 8 -10 11 -10 5z"/>
<path d="M1984 3426 c-3 -8 -4 -25 -2 -38 3 -17 5 -13 9 15 5 38 2 47 -7 23z"/>
<path d="M4303 3310 c0 -47 2 -66 4 -42 2 23 2 61 0 85 -2 23 -4 4 -4 -43z"/>
<path d="M1496 3347 c3 -10 9 -15 12 -12 3 3 0 11 -7 18 -10 9 -11 8 -5 -6z"/>
<path d="M1546 3351 c-4 -5 3 -7 14 -4 23 6 26 13 6 13 -8 0 -17 -4 -20 -9z"/>
<path d="M1990 3351 c0 -5 7 -14 15 -21 13 -10 15 -9 15 9 0 12 -6 21 -15 21
-8 0 -15 -4 -15 -9z"/>
<path d="M3481 3240 l0 -105 30 55 c33 61 30 37 -7 -54 -23 -58 -24 -66 -24
-368 l0 -308 -85 0 -85 0 0 -28 c0 -33 -27 -75 -42 -66 -7 5 -8 2 -4 -5 11
-17 -22 -40 -57 -41 -39 0 -43 21 -13 85 l25 55 -54 0 -53 0 4 -125 c4 -107 2
-132 -15 -173 -39 -96 -51 -133 -51 -157 0 -33 18 -41 30 -13 9 20 10 19 7
-12 -1 -23 -12 -45 -29 -62 -27 -27 -37 -45 -19 -33 5 3 12 1 16 -5 4 -6 11
-8 16 -5 5 4 9 1 9 -4 0 -11 -27 -10 -46 2 -12 7 -24 -1 -24 -15 0 -5 5 -6 10
-3 18 11 10 -4 -16 -30 -14 -14 -23 -29 -20 -33 3 -5 -1 -9 -9 -9 -8 0 -12 4
-9 8 2 4 1 9 -3 12 -5 2 -2 2 4 1 7 -2 12 1 10 6 -1 5 7 16 18 24 11 8 15 16
9 16 -5 0 -26 -15 -46 -32 -20 -18 -46 -34 -57 -35 -12 -2 -35 -13 -51 -25
-23 -17 -32 -19 -44 -9 -10 8 -16 9 -21 1 -10 -16 -25 -12 -25 8 0 10 7 19 15
20 8 1 22 3 30 4 8 1 15 5 15 9 0 5 6 6 14 3 15 -6 59 18 88 47 9 9 21 19 27
20 5 2 11 11 13 19 2 8 7 18 13 22 5 4 6 10 2 14 -10 10 -38 -16 -35 -34 2 -8
-5 -16 -15 -18 -15 -2 -16 0 -6 12 6 8 9 17 6 20 -3 3 -13 -6 -22 -20 -10 -14
-25 -25 -34 -25 -13 1 -13 2 2 6 10 2 16 12 15 21 -2 9 3 17 11 17 8 0 16 5
18 12 3 7 -3 11 -15 8 -10 -2 -19 2 -19 10 0 14 14 14 35 2 6 -5 18 -5 25 0 6
4 16 8 21 8 14 0 16 35 3 35 -7 0 -4 6 5 13 10 8 13 18 8 26 -5 10 -9 10 -13
2 -3 -7 -4 -7 -3 1 2 7 10 12 19 12 9 -1 14 3 11 8 -4 6 -2 13 3 17 21 13 75
146 84 204 5 34 9 137 9 230 0 104 4 167 10 167 6 0 10 7 10 15 0 8 -4 15 -10
15 -6 0 -10 67 -10 180 0 151 -2 182 -15 186 -11 5 -15 23 -15 75 0 38 4 69 9
69 11 0 2 38 -10 46 -5 3 -9 -43 -9 -101 0 -98 2 -107 18 -100 14 5 15 4 5 -6
-10 -10 -13 -81 -13 -286 l0 -272 -149 -118 c-82 -65 -206 -163 -277 -218 -70
-55 -145 -115 -166 -134 -22 -19 -38 -28 -36 -20 2 10 -5 13 -27 11 -16 -1
-43 -3 -58 -3 -15 0 -25 -4 -22 -9 3 -5 1 -12 -5 -15 -6 -4 -9 -1 -8 7 2 8 -9
14 -30 16 -19 2 -50 12 -69 23 -20 11 -42 18 -50 14 -10 -3 -13 -1 -10 9 9 23
-18 40 -42 27 -30 -16 -38 -13 -13 5 l23 16 -28 27 c-15 14 -34 25 -42 22 -9
-3 -12 0 -7 7 5 8 1 11 -11 9 -10 -1 -20 3 -21 8 -6 17 -24 35 -31 31 -4 -3
-7 8 -6 22 0 16 -5 26 -12 24 -7 -1 -13 7 -13 17 0 11 -11 28 -25 39 -13 11
-21 22 -17 26 3 4 -1 4 -11 0 -16 -6 -23 5 -17 31 1 5 -2 7 -6 3 -4 -4 -17 4
-29 18 -19 22 -26 24 -44 15 -26 -14 -27 -21 -2 -14 11 3 29 -6 46 -21 15 -14
22 -26 16 -26 -7 0 -9 -5 -6 -10 4 -6 9 -9 13 -6 13 7 65 -29 68 -47 1 -9 -2
-15 -7 -11 -5 3 -7 10 -4 15 10 16 -24 22 -42 8 -9 -8 -14 -9 -10 -3 4 7 -1
18 -10 25 -15 12 -16 12 -9 -6 4 -11 3 -16 -1 -11 -4 4 -9 17 -9 29 -3 46 -4
49 -19 44 -8 -4 -17 -2 -20 3 -3 5 -14 7 -24 5 -10 -2 -18 3 -18 10 0 8 4 12
9 9 20 -13 6 47 -15 60 -42 28 -108 47 -126 36 -14 -9 -13 -10 4 -8 36 2 55
-2 55 -12 0 -7 -7 -7 -20 0 -11 6 -24 8 -29 5 -13 -7 -42 5 -35 16 8 14 -70
11 -84 -3 -9 -9 -12 -9 -12 0 0 7 -10 12 -22 12 -19 0 -20 -2 -8 -11 12 -8 10
-9 -7 -4 -38 10 -47 -4 -21 -34 20 -22 18 -22 -11 4 l-34 30 6 -25 c4 -14 7
-47 7 -73 0 -27 4 -46 8 -43 4 2 8 -11 8 -29 0 -18 -3 -32 -7 -29 -9 5 -5 -23
4 -32 4 -4 7 -1 7 6 0 7 2 11 5 8 3 -3 1 -18 -5 -33 -9 -24 -9 -26 4 -16 13
11 14 8 6 -20 -7 -22 -6 -37 2 -46 6 -7 8 -16 4 -20 -3 -3 -6 0 -6 7 0 7 -3
10 -6 7 -4 -4 -1 -13 5 -21 8 -10 9 -16 1 -21 -5 -3 -10 -33 -10 -66 0 -42 -3
-58 -11 -53 -15 9 -2 -35 16 -56 8 -8 25 -40 40 -70 25 -53 26 -54 24 -20 -2
19 2 44 8 55 6 12 11 28 10 37 -3 30 18 20 29 -14 8 -22 8 -35 2 -39 -7 -4 -8
-18 -3 -35 5 -16 7 -34 6 -40 0 -6 6 -17 14 -24 9 -8 15 -9 13 -4 -2 5 0 10 5
12 16 5 19 1 7 -13 -10 -13 -10 -19 3 -33 9 -9 15 -21 15 -25 -1 -16 43 -68
53 -62 5 4 9 -1 9 -10 0 -10 5 -14 13 -10 6 4 5 1 -4 -7 -9 -7 -14 -20 -11
-28 5 -13 3 -13 -14 -1 -10 7 -1 -3 21 -23 41 -37 55 -43 55 -26 0 6 -4 10
-10 10 -5 0 -10 12 -9 28 l1 27 7 -25 c7 -24 7 -24 20 -5 8 14 11 15 7 3 -5
-19 16 -42 29 -30 5 4 5 2 1 -5 -4 -8 3 -11 23 -11 18 1 28 5 24 11 -3 6 -1 7
6 3 9 -6 9 -11 1 -21 -16 -19 18 -37 43 -24 22 13 42 2 28 -14 -9 -12 3 -15
66 -20 12 0 19 -5 17 -9 -3 -4 24 -7 61 -6 42 1 61 5 53 11 -13 9 0 6 39 -10
11 -4 14 -3 9 5 -5 8 -2 10 9 6 8 -4 26 1 40 10 24 16 55 22 55 10 0 -13 -30
-34 -48 -34 -10 0 -19 -7 -19 -15 0 -8 5 -15 10 -15 6 0 7 -3 4 -6 -4 -4 -12
-2 -19 3 -8 6 -36 7 -73 3 -33 -4 -63 -6 -66 -4 -12 7 -18 -25 -7 -32 7 -4 14
-2 16 4 2 7 8 9 14 6 6 -4 6 -9 -3 -14 -9 -6 -3 -14 21 -29 19 -11 37 -18 41
-16 4 3 13 -3 20 -13 13 -15 12 -16 -3 -4 -12 9 -18 10 -23 2 -14 -23 14 -31
136 -37 115 -6 123 -5 110 10 -12 15 -9 17 33 17 43 0 61 -12 34 -23 -7 -3 4
-6 25 -6 24 -1 36 3 32 9 -4 6 -10 8 -15 5 -5 -3 -11 -1 -14 4 -3 5 11 8 32 8
129 -2 184 11 152 34 -13 9 -13 10 2 6 9 -3 19 -3 21 1 2 4 2 0 0 -8 -3 -8 -5
-19 -6 -25 -1 -5 -11 -13 -22 -17 -12 -3 1 -6 33 -7 30 -1 52 3 52 9 0 6 10
15 23 21 20 9 20 9 -5 4 -16 -3 -28 -1 -28 5 0 5 7 10 16 10 9 0 12 5 8 13 -5
8 -2 8 9 -2 11 -9 17 -10 17 -2 0 6 6 10 13 9 6 -2 11 2 10 9 -1 6 4 14 12 17
24 9 18 -21 -7 -38 -12 -9 -18 -16 -12 -16 16 0 64 24 64 32 0 4 7 5 15 2 8
-4 15 -1 15 5 0 6 -5 11 -11 11 -6 0 -3 7 6 16 9 10 14 25 12 34 -5 18 15 22
30 5 5 -4 1 -5 -7 0 -8 5 -12 5 -8 0 4 -4 3 -15 -4 -24 -7 -9 -1 -6 13 7 23
22 23 24 5 37 -18 13 -18 14 2 12 12 0 19 -3 17 -6 -3 -2 0 -10 6 -18 9 -10 8
-17 -2 -30 -13 -15 -12 -15 6 -4 11 6 31 19 45 29 14 9 49 32 78 51 29 19 52
36 52 38 0 2 -4 1 -10 -2 -16 -10 -11 7 8 29 10 12 25 40 32 64 7 24 17 45 22
48 4 3 5 -2 2 -11 -5 -12 -2 -14 14 -8 12 5 21 12 21 17 -1 5 3 12 8 15 11 7
53 67 53 74 0 3 -8 8 -17 10 -13 3 -11 5 6 6 17 1 21 5 17 17 -3 8 -2 13 3 10
9 -6 35 44 26 52 -3 3 -5 -1 -5 -8 0 -7 -3 -10 -6 -7 -4 4 -1 13 6 22 13 15 3
21 -25 15 -5 -1 -7 2 -2 6 4 4 0 15 -9 25 -12 14 -13 18 -2 25 7 4 10 3 5 -1
-9 -10 21 -45 40 -45 7 0 13 8 13 18 0 14 -2 15 -10 2 -6 -10 -10 -11 -10 -2
0 22 2 27 11 25 20 -6 8 35 -13 45 -21 10 -20 10 7 6 26 -5 31 -2 31 14 0 11
-4 18 -8 16 -4 -3 -8 -1 -8 4 0 6 -10 8 -22 6 -21 -4 -21 -4 -3 4 11 5 25 7
32 5 16 -6 46 54 40 79 -3 11 -3 17 1 14 8 -9 37 46 112 212 23 51 43 99 44
107 1 8 12 26 23 39 12 13 27 35 34 48 7 12 20 28 29 35 10 7 23 26 30 43 7
16 15 30 19 30 4 0 13 16 20 35 14 40 18 41 49 19 23 -16 28 -9 13 15 -5 8
-14 10 -21 6 -8 -5 -11 -3 -8 5 8 26 27 21 43 -9 8 -17 13 -31 11 -31 -3 0 10
-22 27 -49 18 -26 37 -57 44 -67 9 -15 12 20 12 173 l1 191 -147 175 c-82 96
-151 173 -155 170 -5 -2 -8 2 -8 9 0 7 -14 29 -30 48 l-29 35 0 -105z m179
-241 c0 -25 -33 -22 -38 4 -2 12 3 17 17 17 15 0 21 -6 21 -21z m-2020 -572
c0 -2 -8 -3 -18 -3 -10 0 -19 6 -19 13 0 8 6 9 19 2 10 -5 18 -11 18 -12z m93
9 c17 -13 16 -14 -6 -12 -13 0 -24 7 -24 14 0 15 7 15 30 -2z m-233 -6 c8 -5
11 -10 5 -10 -5 0 -17 5 -25 10 -8 5 -10 10 -5 10 6 0 17 -5 25 -10z m180 0
c8 -5 11 -10 5 -10 -5 0 -17 5 -25 10 -8 5 -10 10 -5 10 6 0 17 -5 25 -10z
m-169 -193 c-10 -9 -11 -8 -5 6 3 10 9 15 12 12 3 -3 0 -11 -7 -18z m-11 -32
c0 -5 -5 -3 -10 5 -5 8 -10 20 -10 25 0 6 5 3 10 -5 5 -8 10 -19 10 -25z m459
3 c12 4 12 3 0 -11 -8 -8 -16 -11 -18 -5 -2 6 -6 5 -11 -2 -4 -7 -7 -1 -7 16
0 23 1 25 11 13 6 -9 17 -14 25 -11z m1437 -27 c8 7 14 7 14 1 0 -8 -22 -22
-36 -22 -2 0 -3 10 -3 23 1 17 2 18 6 4 4 -14 8 -16 19 -6z m-1880 -48 c1 -16
2 -37 3 -48 l2 -20 9 20 c6 13 7 0 4 -35 -7 -72 -9 -83 -16 -95 -3 -6 -8 -23
-12 -40 -5 -22 -4 -26 4 -15 5 8 10 10 10 4 0 -13 -28 -39 -35 -33 -2 3 -5 28
-7 57 -2 28 -6 52 -9 52 -4 0 -10 7 -13 16 -3 8 -2 13 3 10 18 -11 21 39 3 53
-14 11 -14 13 -1 8 13 -4 16 4 17 46 2 37 -1 48 -8 37 -14 -22 -12 -3 2 20 11
17 14 18 27 5 8 -8 16 -27 17 -42z m559 -23 c8 -13 -5 -13 -25 0 -13 8 -13 10
2 10 9 0 20 -4 23 -10z m-498 -42 c-3 -8 -6 -5 -6 6 -1 11 2 17 5 13 3 -3 4
-12 1 -19z m563 -22 c0 -8 -4 -17 -9 -21 -12 -7 -24 12 -16 25 9 15 25 12 25
-4z m-679 -19 c-10 -9 -11 -8 -5 6 3 10 9 15 12 12 3 -3 0 -11 -7 -18z m96 -9
c-3 -8 -6 -5 -6 6 -1 11 2 17 5 13 3 -3 4 -12 1 -19z m24 -9 c-5 -13 -10 -19
-10 -12 -1 15 10 45 15 40 3 -2 0 -15 -5 -28z m192 -14 c-7 -21 -12 -19 -10 4
0 11 5 18 9 15 4 -3 5 -11 1 -19z m33 16 c-3 -5 7 -11 22 -14 15 -3 41 -9 57
-12 22 -5 26 -4 15 4 -8 5 -17 8 -21 5 -4 -2 -12 2 -17 9 -9 10 -6 13 13 13
13 0 22 -2 20 -5 -3 -2 3 -10 13 -18 12 -10 14 -16 4 -19 -17 -8 -5 -24 19
-24 10 0 19 -5 19 -11 0 -9 29 -45 31 -37 0 2 2 13 3 25 2 13 6 26 9 29 4 4 5
-8 2 -26 -6 -51 10 -81 40 -76 17 3 23 1 19 -6 -5 -8 -1 -9 11 -4 15 5 16 4 5
-9 -10 -12 -10 -15 0 -15 10 0 10 -3 1 -14 -8 -10 -9 -16 -1 -21 5 -3 10 -10
10 -16 0 -5 -8 -1 -18 9 -10 9 -14 20 -9 23 6 4 2 17 -8 30 -13 19 -16 20 -11
5 4 -11 1 -23 -6 -27 -7 -5 -14 -13 -14 -19 -1 -5 -2 -16 -3 -22 -1 -10 -3
-10 -9 -1 -4 7 -22 13 -39 15 -17 1 -29 6 -27 10 3 4 -1 8 -9 8 -7 0 -19 11
-25 25 -7 15 -8 25 -2 25 6 0 10 -6 10 -14 0 -8 5 -18 10 -21 17 -11 11 14 -9
34 -11 11 -16 23 -13 27 4 4 -1 4 -10 1 -11 -4 -21 0 -26 9 -5 9 -11 15 -13
13 -8 -4 -54 14 -62 25 -5 6 -6 0 -3 -14 3 -14 3 -19 0 -12 -3 6 -10 10 -14 7
-5 -3 -5 8 0 25 6 20 5 30 -2 30 -6 0 -1 9 12 20 13 11 20 20 16 20 -4 0 -4 5
-1 10 3 6 8 10 11 10 3 0 3 -4 0 -9z m377 2 c-22 -8 -14 -20 10 -16 15 3 28
-2 37 -14 12 -15 12 -16 0 -5 -8 6 -21 12 -29 12 -12 -1 -10 -6 8 -20 27 -23
24 -25 -16 -7 -25 11 -30 21 -25 50 1 4 8 7 15 6 10 0 10 -2 0 -6z m92 -43 c3
-5 20 -14 38 -19 20 -6 25 -9 12 -10 -11 0 -33 8 -50 19 -16 11 -25 20 -18 20
6 0 15 -4 18 -10z m96 -18 c-7 -2 -18 1 -23 6 -8 8 -4 9 13 5 13 -4 18 -8 10
-11z m70 8 c19 10 22 10 12 0 -18 -19 -63 -22 -56 -3 4 11 8 11 13 3 6 -9 13
-9 31 0z m-856 -50 c-9 -41 -17 -33 -9 9 4 17 9 30 11 27 3 -2 2 -19 -2 -36z
m602 34 c-3 -3 -12 -4 -19 -1 -8 3 -5 6 6 6 11 1 17 -2 13 -5z m1022 -16 c8 3
11 0 7 -7 -11 -18 5 -13 21 7 13 15 13 14 2 -7 -9 -20 -9 -27 2 -35 16 -13 24
-40 9 -31 -5 3 -10 2 -10 -4 0 -5 4 -13 10 -16 6 -4 1 -15 -10 -28 -11 -12
-18 -27 -16 -34 3 -8 -1 -10 -11 -6 -9 4 -22 -1 -31 -13 -9 -12 -13 -13 -10
-4 3 8 -1 21 -9 28 -7 7 -13 19 -13 25 0 8 3 8 9 -1 6 -10 10 -9 14 7 3 12 2
19 -2 16 -4 -2 -8 2 -8 10 0 8 4 12 8 10 4 -3 9 2 12 10 4 10 1 12 -11 9 -14
-5 -14 -4 -2 4 8 6 17 9 21 6 4 -2 12 3 19 10 9 12 7 17 -9 25 -11 6 -24 11
-28 10 -17 -3 -24 1 -18 11 4 6 13 7 23 1 9 -4 23 -6 31 -3z m81 2 c0 -5 -2
-10 -4 -10 -3 0 -8 5 -11 10 -3 6 -1 10 4 10 6 0 11 -4 11 -10z m-210 -26 c0
-8 -19 -13 -24 -6 -3 5 1 9 9 9 8 0 15 -2 15 -3z m110 -4 c0 -5 -5 -10 -11
-10 -5 0 -7 5 -4 10 3 6 8 10 11 10 2 0 4 -4 4 -10z m-1364 -15 c4 -8 9 -13
13 -11 3 2 15 -2 26 -10 10 -8 14 -14 8 -14 -7 0 -15 5 -18 10 -4 6 -10 8 -15
5 -5 -3 -11 -1 -15 5 -4 6 -10 8 -14 6 -4 -3 -8 1 -8 9 0 19 16 19 23 0z m-45
-12 c13 -16 12 -17 -3 -4 -10 7 -18 15 -18 17 0 8 8 3 21 -13z m39 -23 c0 -5
-4 -10 -10 -10 -5 0 -10 5 -10 10 0 6 5 10 10 10 6 0 10 -4 10 -10z m1013 -16
c-21 -16 -5 -18 32 -4 17 7 24 7 20 0 -3 -6 -13 -10 -21 -10 -8 0 -14 -4 -14
-10 0 -6 -9 -5 -24 1 -22 10 -23 12 -7 29 9 9 20 15 24 12 5 -2 0 -10 -10 -18z
m-1233 10 c0 -8 -19 -13 -24 -6 -3 5 1 9 9 9 8 0 15 -2 15 -3z m254 -24 c-6
-6 -10 -3 -10 10 0 13 4 16 10 10 7 -7 7 -13 0 -20z m47 -25 c8 -16 6 -15 -10
4 -12 13 -21 28 -21 35 0 12 14 -5 31 -39z m1129 25 c0 -5 -5 -10 -11 -10 -5
0 -7 5 -4 10 3 6 8 10 11 10 2 0 4 -4 4 -10z m-225 -20 c-3 -5 -10 -10 -16
-10 -5 0 -9 5 -9 10 0 6 7 10 16 10 8 0 12 -4 9 -10z m458 -10 c-10 -11 -19
-20 -21 -20 -1 0 2 9 8 20 6 11 15 20 20 20 6 0 2 -9 -7 -20z m-223 -2 c0 -11
-12 -10 -30 2 -12 7 -10 9 8 7 12 0 22 -5 22 -9z m-990 -18 c0 -5 -4 -10 -10
-10 -5 0 -10 5 -10 10 0 6 5 10 10 10 6 0 10 -4 10 -10z m1180 -24 c0 -2 -8
-10 -17 -17 -16 -13 -17 -12 -4 4 13 16 21 21 21 13z m-1592 -18 c14 -14 16
-48 2 -48 -5 0 -7 7 -3 16 4 11 -1 22 -12 30 -10 8 -14 14 -9 14 6 0 15 -5 22
-12z m1122 1 c0 -8 5 -7 15 1 9 7 18 10 22 6 3 -3 1 -6 -5 -6 -7 0 -12 -5 -12
-11 0 -6 7 -8 18 -4 13 5 14 3 6 -5 -9 -9 -17 -9 -32 -1 -27 14 -35 14 -26 -1
4 -7 3 -8 -4 -4 -6 4 -9 13 -5 21 6 18 23 20 23 4z m481 -9 c-13 -11 -20 -20
-17 -20 4 0 4 -5 1 -11 -5 -7 -13 -5 -25 6 -17 15 -19 15 -25 -5 -4 -12 -9
-19 -11 -17 -3 2 1 16 7 31 10 21 14 23 23 11 9 -12 14 -12 36 5 33 25 42 25
11 0z m-740 -35 c21 8 39 10 39 5 0 -4 -6 -10 -12 -13 -10 -3 -10 -8 1 -21 13
-15 13 -19 1 -26 -9 -5 -20 -5 -27 2 -7 6 -13 7 -13 3 0 -5 -9 2 -20 15 -11
13 -19 30 -19 39 1 14 2 14 6 -1 4 -15 8 -15 44 -3z m-824 -17 c2 -18 0 -20
-7 -8 -7 11 -10 11 -10 2 0 -7 -4 -10 -10 -7 -6 4 -5 11 3 20 17 20 22 18 24
-7z m889 0 c-13 -7 -14 -14 -6 -31 11 -21 11 -21 -4 -3 -19 23 -20 36 -5 36 5
0 7 4 4 10 -4 6 1 7 11 3 15 -5 15 -7 0 -15z m638 -4 c3 -8 2 -12 -4 -9 -6 3
-10 10 -10 16 0 14 7 11 14 -7z m-777 -26 c-3 -8 -6 -5 -6 6 -1 11 2 17 5 13
3 -3 4 -12 1 -19z m633 -5 c0 -13 3 -13 15 -3 13 10 15 9 15 -11 0 -35 -52
-139 -57 -116 -3 10 3 29 11 42 9 14 14 25 11 25 -3 0 -1 9 5 19 7 14 7 22 -2
27 -7 4 -8 3 -4 -4 5 -8 1 -10 -9 -5 -12 4 -13 8 -4 13 6 5 9 15 6 25 -4 9 -3
14 3 10 6 -3 10 -13 10 -22z m-613 -5 c-3 -8 -6 -5 -6 6 -1 11 2 17 5 13 3 -3
4 -12 1 -19z m-734 -33 c-3 -9 -8 -14 -10 -11 -3 3 -2 9 2 15 9 16 15 13 8 -4z
m162 -65 c-8 -13 8 -13 22 1 8 8 13 8 18 0 3 -6 3 -10 -2 -9 -4 1 -19 -4 -31
-11 -13 -7 -26 -10 -30 -7 -3 3 0 6 6 6 7 0 11 3 11 8 -2 12 1 22 7 22 3 0 2
-4 -1 -10z m1143 -22 c-6 -15 -13 -28 -17 -28 -5 0 -13 -10 -20 -22 -6 -13
-10 -16 -7 -7 2 9 -1 22 -7 29 -9 10 -9 11 1 6 16 -9 42 11 42 32 0 13 -3 12
-14 -4 -12 -16 -17 -17 -28 -6 -11 11 -10 12 6 6 15 -6 18 -4 13 9 -5 13 -1
16 17 15 21 -2 23 -5 14 -30z m-782 -93 c-3 -23 -12 -26 -13 -5 -1 11 2 20 7
20 4 0 7 -7 6 -15z m-123 -22 c-7 -2 -19 -2 -25 0 -7 3 -2 5 12 5 14 0 19 -2
13 -5z m57 -30 c0 -7 -2 -13 -4 -13 -2 0 -13 -3 -23 -6 -16 -6 -15 -5 2 9 19
14 19 16 3 22 -10 4 -18 11 -18 16 0 5 9 4 20 -3 11 -7 20 -18 20 -25z m-34 4
c2 -1 -6 -9 -18 -16 -15 -9 -18 -10 -12 0 5 9 2 11 -9 6 -11 -4 -14 -2 -11 8
5 11 39 13 50 2z m548 5 c3 -5 -1 -9 -9 -9 -8 0 -12 4 -9 9 3 4 7 8 9 8 2 0 6
-4 9 -8z m71 -10 c-3 -3 -11 0 -18 7 -9 10 -8 11 6 5 10 -3 15 -9 12 -12z
m-295 -12 c0 -5 -10 -10 -22 -10 -19 0 -20 2 -8 10 19 13 30 13 30 0z m270 1
c0 -5 -9 -11 -20 -14 -11 -3 -20 -1 -20 3 0 5 8 11 18 13 9 3 18 5 20 6 1 0 2
-3 2 -8z m-383 -27 c-3 -3 -12 -4 -19 -1 -8 3 -5 6 6 6 11 1 17 -2 13 -5z"/>
<path d="M3630 3000 c0 -5 5 -10 10 -10 6 0 10 5 10 10 0 6 -4 10 -10 10 -5 0
-10 -4 -10 -10z"/>
<path d="M1491 2030 c0 -68 2 -80 11 -60 12 31 12 87 -1 120 -8 20 -10 7 -10
-60z"/>
<path d="M1793 1964 c-3 -8 -2 -19 3 -24 5 -5 9 1 9 16 0 28 -3 30 -12 8z"/>
<path d="M1955 1890 c10 -11 20 -20 23 -20 3 0 -3 9 -13 20 -10 11 -20 20 -23
20 -3 0 3 -9 13 -20z"/>
<path d="M1998 1838 c9 -9 9 -15 -1 -27 -11 -14 -10 -14 6 -2 13 10 15 17 6
27 -6 8 -14 14 -17 14 -3 0 -1 -5 6 -12z"/>
<path d="M3206 1855 c-3 -9 0 -15 9 -15 8 0 15 7 15 15 0 8 -4 15 -9 15 -5 0
-11 -7 -15 -15z"/>
<path d="M2510 1639 c0 -5 5 -7 10 -4 6 3 10 8 10 11 0 2 -4 4 -10 4 -5 0 -10
-5 -10 -11z"/>
<path d="M4221 3153 c-1 -18 4 -33 9 -33 12 0 12 17 0 45 -7 17 -9 15 -9 -12z"/>
<path d="M4452 3150 c0 -19 2 -27 5 -17 2 9 2 25 0 35 -3 9 -5 1 -5 -18z"/>
<path d="M1683 3015 c0 -22 2 -30 4 -17 2 12 2 30 0 40 -3 9 -5 -1 -4 -23z"/>
<path d="M2690 3003 c-30 -11 -170 -158 -181 -190 -10 -32 -29 -45 -29 -22 0
8 -4 8 -14 0 -17 -14 -30 -194 -19 -265 8 -51 26 -65 30 -24 8 73 26 159 32
150 3 -6 7 6 7 26 1 51 32 122 44 102 5 -8 10 -19 10 -25 0 -5 -4 -4 -9 4 -6
9 -11 10 -15 2 -4 -6 0 -18 8 -27 12 -12 16 -12 17 -2 2 29 28 -70 28 -110 1
-49 -1 -49 64 -3 l47 35 0 178 c0 98 -1 178 -2 177 -2 0 -10 -3 -18 -6z"/>
<path d="M4402 2825 c0 -16 2 -22 5 -12 2 9 2 23 0 30 -3 6 -5 -1 -5 -18z"/>
<path d="M1671 2794 c0 -11 3 -14 6 -6 3 7 2 16 -1 19 -3 4 -6 -2 -5 -13z"/>
<path d="M1741 2784 c0 -11 3 -14 6 -6 3 7 2 16 -1 19 -3 4 -6 -2 -5 -13z"/>
<path d="M2050 2759 c0 -5 5 -7 10 -4 6 3 10 8 10 11 0 2 -4 4 -10 4 -5 0 -10
-5 -10 -11z"/>
<path d="M2350 2673 l-85 -88 77 74 c53 51 79 70 82 60 2 -8 7 -21 9 -29 3 -8
6 4 6 28 1 23 0 42 -2 42 -1 0 -41 -39 -87 -87z"/>
<path d="M2145 2680 c33 -33 62 -60 64 -60 3 0 -21 27 -54 60 -33 33 -62 60
-64 60 -3 0 21 -27 54 -60z"/>
<path d="M2061 2714 c0 -11 3 -14 6 -6 3 7 2 16 -1 19 -3 4 -6 -2 -5 -13z"/>
<path d="M2571 2694 c0 -11 3 -14 6 -6 3 7 2 16 -1 19 -3 4 -6 -2 -5 -13z"/>
<path d="M2071 2664 c0 -11 3 -14 6 -6 3 7 2 16 -1 19 -3 4 -6 -2 -5 -13z"/>
<path d="M2423 2615 c0 -22 2 -30 4 -17 2 12 2 30 0 40 -3 9 -5 -1 -4 -23z"/>
<path d="M2583 2610 c0 -25 2 -35 4 -22 2 12 2 32 0 45 -2 12 -4 2 -4 -23z"/>
<path d="M2501 2594 c0 -11 3 -14 6 -6 3 7 2 16 -1 19 -3 4 -6 -2 -5 -13z"/>
<path d="M2001 2564 c0 -11 3 -14 6 -6 3 7 2 16 -1 19 -3 4 -6 -2 -5 -13z"/>
<path d="M3802 2560 c7 -10 14 -18 15 -16 6 6 -9 36 -18 36 -5 0 -4 -9 3 -20z"/>
<path d="M2492 2520 c0 -19 2 -27 5 -17 2 9 2 25 0 35 -3 9 -5 1 -5 -18z"/>
<path d="M2432 2520 c0 -14 2 -19 5 -12 2 6 2 18 0 25 -3 6 -5 1 -5 -13z"/>
<path d="M3826 2510 c4 -14 11 -43 15 -65 l6 -40 1 40 c1 22 -5 51 -14 65
l-15 25 7 -25z"/>
<path d="M1543 2503 c15 -2 39 -2 55 0 15 2 2 4 -28 4 -30 0 -43 -2 -27 -4z"/>
<path d="M2012 2430 c0 -19 2 -27 5 -17 2 9 2 25 0 35 -3 9 -5 1 -5 -18z"/>
<path d="M2072 2440 c0 -14 2 -19 5 -12 2 6 2 18 0 25 -3 6 -5 1 -5 -13z"/>
<path d="M3292 2430 c0 -14 2 -19 5 -12 2 6 2 18 0 25 -3 6 -5 1 -5 -13z"/>
<path d="M2422 2420 c0 -14 2 -19 5 -12 2 6 2 18 0 25 -3 6 -5 1 -5 -13z"/>
<path d="M4505 2420 c10 -11 20 -20 23 -20 3 0 -3 9 -13 20 -10 11 -20 20 -23
20 -3 0 3 -9 13 -20z"/>
<path d="M1810 2426 c0 -2 8 -10 18 -17 15 -13 16 -12 3 4 -13 16 -21 21 -21
13z"/>
<path d="M2263 2423 c9 -2 25 -2 35 0 9 3 1 5 -18 5 -19 0 -27 -2 -17 -5z"/>
<path d="M1790 2400 c0 -5 5 -10 10 -10 6 0 10 5 10 10 0 6 -4 10 -10 10 -5 0
-10 -4 -10 -10z"/>
<path d="M2250 2400 c0 -5 10 -14 23 -21 29 -15 87 -70 87 -83 0 -6 -19 8 -42
29 l-43 40 39 -42 c21 -23 44 -41 49 -40 6 1 21 -16 33 -38 l24 -40 0 91 0 91
-64 11 c-77 15 -106 15 -106 2z"/>
<path d="M3891 2360 c14 -31 19 -36 19 -24 0 6 -7 19 -16 30 -14 18 -14 18 -3
-6z"/>
<path d="M1895 2350 c10 -11 20 -20 23 -20 3 0 -3 9 -13 20 -10 11 -20 20 -23
20 -3 0 3 -9 13 -20z"/>
<path d="M2032 2310 c0 -19 2 -27 5 -17 2 9 2 25 0 35 -3 9 -5 1 -5 -18z"/>
<path d="M1403 2312 c-9 -6 -7 -11 6 -19 15 -10 19 -9 17 2 -3 20 -10 25 -23
17z"/>
<path d="M3940 2301 c0 -5 -10 -12 -22 -14 -13 -2 0 -5 27 -5 46 -1 48 0 31
13 -23 17 -36 19 -36 6z"/>
<path d="M1940 2296 c0 -2 8 -10 18 -17 15 -13 16 -12 3 4 -13 16 -21 21 -21
13z"/>
<path d="M1997 2256 c-4 -10 -5 -21 -2 -24 9 -9 17 6 13 25 -3 17 -4 17 -11
-1z"/>
<path d="M2053 2235 c0 -22 2 -30 4 -17 2 12 2 30 0 40 -3 9 -5 -1 -4 -23z"/>
<path d="M2025 2250 c-3 -5 -1 -10 4 -10 6 0 11 5 11 10 0 6 -2 10 -4 10 -3 0
-8 -4 -11 -10z"/>
<path d="M1990 2204 c0 -6 7 -17 15 -24 8 -7 12 -17 8 -24 -3 -6 -2 -8 2 -3
14 12 17 49 4 41 -6 -3 -15 0 -20 7 -5 8 -9 9 -9 3z"/>
<path d="M2080 2146 c0 -2 8 -10 18 -17 15 -13 16 -12 3 4 -13 16 -21 21 -21
13z"/>
<path d="M1422 2090 c0 -19 2 -27 5 -17 2 9 2 25 0 35 -3 9 -5 1 -5 -18z"/>
<path d="M2391 2097 c-13 -20 -13 -21 2 -8 10 8 17 9 17 3 0 -6 -12 -20 -26
-31 l-27 -21 32 0 c27 0 31 3 31 28 0 42 -13 55 -29 29z"/>
<path d="M3900 2116 c0 -2 7 -7 16 -10 8 -3 12 -2 9 4 -6 10 -25 14 -25 6z"/>
<path d="M4005 2040 c10 -11 20 -20 23 -20 3 0 -3 9 -13 20 -10 11 -20 20 -23
20 -3 0 3 -9 13 -20z"/>
<path d="M4252 2040 c-9 -15 -9 -21 1 -26 6 -4 9 -4 5 1 -4 4 -3 14 4 22 6 7
9 15 7 18 -3 2 -10 -4 -17 -15z"/>
<path d="M2217 2029 c7 -7 15 -10 18 -7 3 3 -2 9 -12 12 -14 6 -15 5 -6 -5z"/>
<path d="M2380 2020 c0 -12 8 -12 35 0 18 8 17 9 -7 9 -16 1 -28 -3 -28 -9z"/>
<path d="M4114 1964 c-17 -14 -17 -15 -1 -10 13 4 17 1 15 -11 -2 -9 3 -17 10
-19 7 -1 8 0 2 3 -8 3 -7 9 1 19 19 23 -3 37 -27 18z"/>
<path d="M2939 1913 c-13 -16 -12 -17 4 -4 16 13 21 21 13 21 -2 0 -10 -8 -17
-17z"/>
<path d="M1541 1894 c0 -11 3 -14 6 -6 3 7 2 16 -1 19 -3 4 -6 -2 -5 -13z"/>
<path d="M2992 1890 c-7 -11 -9 -20 -4 -20 10 0 32 22 32 32 0 15 -15 8 -28
-12z"/>
<path d="M4135 1860 c9 -16 18 -30 21 -30 2 0 -2 14 -11 30 -9 17 -18 30 -21
30 -2 0 2 -13 11 -30z"/>
<path d="M1520 1815 c0 -8 5 -15 10 -15 6 0 10 7 10 15 0 8 -4 15 -10 15 -5 0
-10 -7 -10 -15z"/>
<path d="M2815 1760 c-3 -5 -2 -10 4 -10 5 0 13 5 16 10 3 6 2 10 -4 10 -5 0
-13 -4 -16 -10z"/>
<path d="M4362 1496 c0 -22 7 -41 20 -53 20 -18 20 -17 16 7 -2 14 -9 24 -16
22 -10 -2 -10 3 -3 17 8 14 7 22 -3 30 -11 10 -14 5 -14 -23z"/>
<path d="M1755 1510 c3 -5 11 -10 16 -10 6 0 7 5 4 10 -3 6 -11 10 -16 10 -6
0 -7 -4 -4 -10z"/>
<path d="M1807 1500 c-3 -11 7 -23 29 -35 45 -24 47 -17 7 21 -26 26 -32 28
-36 14z"/>
<path d="M1885 1480 c-3 -6 1 -7 9 -4 18 7 21 14 7 14 -6 0 -13 -4 -16 -10z"/>
<path d="M4415 1450 c3 -5 8 -10 11 -10 2 0 4 5 4 10 0 6 -5 10 -11 10 -5 0
-7 -4 -4 -10z"/>
<path d="M2010 1400 c0 -5 5 -10 10 -10 6 0 10 5 10 10 0 6 -4 10 -10 10 -5 0
-10 -4 -10 -10z"/>
<path d="M2010 1366 c0 -2 7 -7 16 -10 8 -3 12 -2 9 4 -6 10 -25 14 -25 6z"/>
<path d="M4658 1303 c6 -2 18 -2 25 0 6 3 1 5 -13 5 -14 0 -19 -2 -12 -5z"/>
</g>
</svg>
